<?xml version="1.0" encoding="UTF-8" standalone="no"?>
<!-- Created with Inkscape (http://www.inkscape.org/) -->

<svg
   version="1.1"
   id="svg2"
   width="7352.5732"
   height="7317.3335"
   viewBox="0 0 7352.5732 7317.3335"
   sodipodi:docname="Metatron logo bleu.ai"
   xmlns:inkscape="http://www.inkscape.org/namespaces/inkscape"
   xmlns:sodipodi="http://sodipodi.sourceforge.net/DTD/sodipodi-0.dtd"
   xmlns="http://www.w3.org/2000/svg"
   xmlns:svg="http://www.w3.org/2000/svg">
  <defs
     id="defs6">
    <clipPath
       clipPathUnits="userSpaceOnUse"
       id="clipPath16">
      <path
         d="M 0,5488 H 5514.434 V 0 H 0 Z"
         id="path14" />
    </clipPath>
  </defs>
  <sodipodi:namedview
     id="namedview4"
     pagecolor="#ffffff"
     bordercolor="#000000"
     borderopacity="0.25"
     inkscape:showpageshadow="2"
     inkscape:pageopacity="0.0"
     inkscape:pagecheckerboard="0"
     inkscape:deskcolor="#d1d1d1" />
  <g
     id="g8"
     inkscape:groupmode="layer"
     inkscape:label="Metatron logo bleu"
     transform="matrix(1.3333333,0,0,-1.3333333,0,7317.3333)">
    <g
       id="g10">
      <g
         id="g12"
         clip-path="url(#clipPath16)">
        <g
           id="g18"
           transform="translate(3260.8525,3771.7739)">
          <path
             d="m 0,0 c -0.128,-92.22 -25.445,-183.062 -73.355,-261.882 -46.376,-76.296 -113.249,-139.325 -191.72,-181.785 -81.55,-44.126 -174.716,-64.172 -267.188,-59.18 -91.35,4.931 -180.281,35.61 -255.782,87.124 -73.781,50.34 -133.185,120.598 -171.429,201.231 -39.892,84.112 -54.79,178.931 -44.666,271.329 9.903,90.376 45.443,177.042 100.471,249.261 54.036,70.917 127.611,126.946 210.146,160.56 86.386,35.181 182.313,45.464 274.257,29.973 89.207,-15.028 173.527,-54.643 242.341,-113.307 68.161,-58.107 120.22,-134.277 149.494,-218.921 C -9.159,111.571 -0.077,55.874 0,0 c 0.011,-7.738 12.011,-7.739 12,0 -0.128,92.452 -25.024,183.812 -72.222,263.337 -45.656,76.926 -111.661,141.279 -189.377,185.481 -80.513,45.794 -173.012,68.613 -265.536,66.692 -92.067,-1.91 -182.857,-29.045 -261.011,-77.685 -75.953,-47.271 -138.962,-114.556 -181.519,-193.205 -44.186,-81.661 -65.078,-174.866 -61.102,-267.552 3.937,-91.764 32.939,-181.703 83.084,-258.62 48.869,-74.959 117.405,-136.599 196.967,-177.493 82.753,-42.534 176.601,-61.495 269.381,-55.456 91.436,5.95 180.493,36.788 256.161,88.416 73.943,50.451 134.188,120.21 173.401,200.665 C -5.632,-155.372 11.892,-77.883 12,0 12.011,7.739 0.011,7.738 0,0"
             style="fill:#32598c;fill-opacity:1;fill-rule:nonzero;stroke:none"
             id="path20" />
        </g>
        <g
           id="g22"
           transform="translate(3260.8525,713.9512)">
          <path
             d="m 0,0 c -0.128,-92.22 -25.446,-183.059 -73.355,-261.879 -46.377,-76.296 -113.249,-139.325 -191.72,-181.786 -81.55,-44.127 -174.716,-64.173 -267.188,-59.182 -91.351,4.932 -180.281,35.612 -255.782,87.126 -73.78,50.341 -133.185,120.6 -171.429,201.233 -39.892,84.11 -54.79,178.928 -44.666,271.327 9.903,90.376 45.442,177.044 100.471,249.262 54.036,70.917 127.611,126.945 210.146,160.557 86.386,35.181 182.313,45.463 274.257,29.974 89.207,-15.028 173.526,-54.643 242.341,-113.306 68.161,-58.104 120.22,-134.275 149.494,-218.92 C -9.159,111.573 -0.077,55.873 0,0 c 0.011,-7.738 12.011,-7.739 12,0 -0.128,92.452 -25.023,183.814 -72.222,263.34 -45.655,76.927 -111.661,141.278 -189.377,185.48 -80.513,45.792 -173.012,68.61 -265.536,66.69 -92.066,-1.91 -182.856,-29.044 -261.011,-77.684 -75.953,-47.269 -138.962,-114.554 -181.519,-193.203 -44.186,-81.661 -65.078,-174.868 -61.102,-267.556 3.937,-91.762 32.94,-181.7 83.084,-258.616 48.869,-74.959 117.405,-136.599 196.967,-177.494 82.752,-42.534 176.601,-61.495 269.381,-55.457 91.436,5.949 180.493,36.789 256.161,88.418 73.943,50.45 134.187,120.211 173.401,200.665 C -5.633,-155.37 11.892,-77.883 12,0 12.011,7.738 0.011,7.737 0,0"
             style="fill:#32598c;fill-opacity:1;fill-rule:nonzero;stroke:none"
             id="path24" />
        </g>
        <g
           id="g26"
           transform="translate(3260.8525,1733.2266)">
          <path
             d="m 0,0 c -0.128,-92.22 -25.446,-183.06 -73.355,-261.88 -46.376,-76.296 -113.249,-139.325 -191.72,-181.786 -81.55,-44.127 -174.716,-64.174 -267.188,-59.182 -91.351,4.932 -180.281,35.611 -255.782,87.125 -73.781,50.342 -133.185,120.601 -171.429,201.234 -39.892,84.111 -54.79,178.929 -44.666,271.327 9.903,90.377 45.442,177.044 100.471,249.263 54.036,70.917 127.611,126.945 210.146,160.557 86.386,35.181 182.313,45.463 274.257,29.974 89.207,-15.028 173.526,-54.643 242.341,-113.306 C -108.764,325.221 -56.705,249.05 -27.431,164.405 -9.159,111.572 -0.077,55.874 0,0 c 0.011,-7.737 12.011,-7.739 12,0 -0.128,92.452 -25.024,183.813 -72.222,263.34 -45.655,76.927 -111.661,141.277 -189.377,185.479 -80.513,45.793 -173.012,68.611 -265.536,66.691 -92.066,-1.91 -182.856,-29.044 -261.011,-77.685 -75.953,-47.269 -138.962,-114.554 -181.519,-193.203 -44.186,-81.66 -65.078,-174.867 -61.102,-267.554 3.937,-91.763 32.939,-181.702 83.084,-258.618 48.869,-74.959 117.405,-136.599 196.967,-177.495 82.752,-42.533 176.601,-61.495 269.381,-55.457 91.436,5.95 180.493,36.789 256.161,88.418 73.943,50.451 134.187,120.212 173.401,200.666 C -5.633,-155.37 11.892,-77.883 12,0 12.011,7.738 0.011,7.738 0,0"
             style="fill:#32598c;fill-opacity:1;fill-rule:nonzero;stroke:none"
             id="path28" />
        </g>
        <g
           id="g30"
           transform="translate(3260.8525,4791.0488)">
          <path
             d="m 0,0 c -0.128,-92.22 -25.445,-183.062 -73.355,-261.882 -46.376,-76.295 -113.249,-139.324 -191.72,-181.785 -81.55,-44.126 -174.716,-64.172 -267.188,-59.18 -91.35,4.931 -180.281,35.611 -255.782,87.124 -73.781,50.34 -133.185,120.599 -171.429,201.232 -39.892,84.111 -54.79,178.93 -44.666,271.328 9.903,90.376 45.443,177.042 100.471,249.26 54.036,70.917 127.611,126.946 210.146,160.56 86.386,35.182 182.313,45.464 274.257,29.974 89.207,-15.029 173.527,-54.644 242.341,-113.308 68.16,-58.106 120.22,-134.276 149.494,-218.921 C -9.159,111.571 -0.077,55.873 0,0 c 0.011,-7.737 12.011,-7.739 12,0 -0.128,92.451 -25.024,183.811 -72.222,263.336 -45.656,76.927 -111.661,141.279 -189.377,185.481 -80.513,45.794 -173.012,68.613 -265.536,66.692 -92.067,-1.91 -182.857,-29.045 -261.011,-77.686 -75.953,-47.27 -138.962,-114.554 -181.519,-193.204 -44.186,-81.66 -65.078,-174.865 -61.102,-267.552 3.937,-91.763 32.939,-181.702 83.084,-258.619 48.869,-74.959 117.405,-136.599 196.967,-177.493 82.753,-42.533 176.601,-61.494 269.381,-55.456 91.436,5.95 180.493,36.788 256.161,88.416 73.943,50.451 134.188,120.211 173.401,200.665 C -5.632,-155.371 11.892,-77.883 12,0 12.011,7.739 0.011,7.738 0,0"
             style="fill:#32598c;fill-opacity:1;fill-rule:nonzero;stroke:none"
             id="path32" />
        </g>
        <g
           id="g34"
           transform="translate(3009.0059,3188.6768)">
          <path
             d="m 0,0 c 78.767,-45.618 144.114,-111.801 188.416,-191.337 42.823,-76.886 64.626,-164.775 63.462,-252.717 -1.208,-91.265 -28.186,-180.999 -76.228,-258.489 -47.708,-76.952 -116.233,-139.795 -196.612,-181.336 -78.196,-40.413 -166.776,-59.404 -254.643,-55.483 -91.471,4.083 -180.632,34.186 -256.734,84.888 -75.053,50.004 -135.344,120.399 -174.204,201.688 -37.974,79.435 -54.137,168.653 -47.454,256.365 6.974,91.515 40.163,180.004 93.443,254.574 52.235,73.108 124.435,130.841 206.564,167.017 80.607,35.506 170.413,48.819 257.894,39.368 C -127.125,57.085 -60.062,34.568 0,0 6.719,-3.867 12.76,6.504 6.058,10.362 -73.025,55.877 -163.255,79.992 -254.525,79.536 -342.826,79.095 -430.55,55.337 -507.31,11.796 c -79.264,-44.963 -145.393,-111.338 -191.024,-190.125 -45.678,-78.867 -69.628,-169.472 -69.172,-260.581 0.443,-88.299 24.2,-176.023 67.742,-252.781 44.964,-79.264 111.339,-145.392 190.126,-191.025 78.866,-45.678 169.471,-69.627 260.579,-69.171 88.301,0.442 176.026,24.199 252.785,67.74 79.263,44.961 145.392,111.336 191.022,190.124 45.678,78.869 69.63,169.47 69.173,260.581 -0.442,88.3 -24.199,176.024 -67.741,252.783 C 151.217,-101.396 84.843,-35.269 6.058,10.362 -0.652,14.248 -6.691,3.876 0,0"
             style="fill:#32598c;fill-opacity:1;fill-rule:nonzero;stroke:none"
             id="path36" />
        </g>
        <g
           id="g38"
           transform="translate(2126.2852,3698.3145)">
          <path
             d="m 0,0 c 78.767,-45.618 144.117,-111.8 188.417,-191.337 42.824,-76.886 64.626,-164.775 63.461,-252.717 -1.209,-91.265 -28.186,-180.999 -76.228,-258.489 -47.708,-76.952 -116.233,-139.795 -196.611,-181.337 -78.195,-40.413 -166.774,-59.403 -254.641,-55.482 -91.469,4.081 -180.632,34.184 -256.734,84.887 -75.053,50.004 -135.344,120.399 -174.204,201.688 -37.973,79.434 -54.136,168.652 -47.452,256.365 6.973,91.515 40.163,180.004 93.443,254.574 52.234,73.108 124.433,130.841 206.562,167.018 80.607,35.506 170.413,48.819 257.893,39.367 C -127.124,57.085 -60.061,34.568 0,0 6.719,-3.867 12.76,6.503 6.057,10.361 -73.025,55.877 -163.253,79.992 -254.522,79.536 -342.823,79.095 -430.547,55.337 -507.307,11.795 -586.57,-33.167 -652.698,-99.543 -698.329,-178.33 c -45.678,-78.868 -69.629,-169.472 -69.172,-260.581 0.441,-88.3 24.199,-176.023 67.741,-252.781 44.963,-79.264 111.338,-145.393 190.124,-191.025 78.866,-45.678 169.473,-69.627 260.58,-69.171 88.3,0.442 176.024,24.199 252.783,67.74 79.263,44.962 145.391,111.338 191.021,190.125 45.678,78.868 69.629,169.471 69.174,260.581 -0.442,88.3 -24.199,176.024 -67.741,252.783 C 151.219,-101.396 84.844,-35.269 6.057,10.361 -0.653,14.247 -6.692,3.875 0,0"
             style="fill:#32598c;fill-opacity:1;fill-rule:nonzero;stroke:none"
             id="path40" />
        </g>
        <g
           id="g42"
           transform="translate(4774.4434,2169.4043)">
          <path
             d="m 0,0 c 78.766,-45.619 144.114,-111.802 188.414,-191.339 42.824,-76.886 64.627,-164.775 63.463,-252.717 -1.207,-91.265 -28.185,-180.999 -76.227,-258.49 -47.709,-76.952 -116.234,-139.795 -196.613,-181.336 -78.196,-40.412 -166.777,-59.402 -254.643,-55.481 -91.471,4.082 -180.632,34.185 -256.735,84.887 -75.053,50.003 -135.344,120.398 -174.203,201.687 -37.974,79.435 -54.135,168.653 -47.45,256.365 6.973,91.515 40.164,180.004 93.443,254.575 52.235,73.108 124.433,130.841 206.561,167.018 80.606,35.506 170.412,48.819 257.892,39.367 C -127.127,57.085 -60.063,34.567 0,0 c 6.719,-3.867 12.76,6.503 6.057,10.361 -79.083,45.515 -169.313,69.631 -260.584,69.174 -88.3,-0.441 -176.024,-24.199 -252.783,-67.741 -79.262,-44.963 -145.389,-111.339 -191.02,-190.126 -45.678,-78.867 -69.629,-169.471 -69.174,-260.58 0.442,-88.3 24.197,-176.024 67.739,-252.782 44.962,-79.263 111.338,-145.392 190.125,-191.024 78.867,-45.677 169.471,-69.626 260.579,-69.171 88.301,0.442 176.026,24.199 252.786,67.74 79.263,44.961 145.392,111.336 191.023,190.123 45.678,78.87 69.63,169.471 69.173,260.582 -0.442,88.3 -24.2,176.025 -67.743,252.784 C 151.217,-101.398 84.842,-35.27 6.057,10.361 -0.652,14.247 -6.691,3.876 0,0"
             style="fill:#32598c;fill-opacity:1;fill-rule:nonzero;stroke:none"
             id="path44" />
        </g>
        <g
           id="g46"
           transform="translate(3891.7256,2679.04)">
          <path
             d="m 0,0 c 78.765,-45.619 144.113,-111.801 188.413,-191.338 42.824,-76.885 64.626,-164.775 63.463,-252.717 -1.208,-91.263 -28.183,-181 -76.225,-258.489 -47.709,-76.952 -116.235,-139.796 -196.615,-181.336 -78.196,-40.412 -166.776,-59.403 -254.643,-55.482 -91.47,4.083 -180.629,34.186 -256.733,84.887 -75.054,50.004 -135.346,120.399 -174.205,201.688 -37.974,79.435 -54.135,168.653 -47.45,256.366 6.974,91.514 40.163,180.004 93.442,254.573 52.236,73.108 124.434,130.841 206.563,167.018 80.606,35.506 170.412,48.819 257.892,39.368 C -127.126,57.086 -60.063,34.567 0,0 6.719,-3.867 12.76,6.504 6.057,10.361 -73.026,55.876 -163.257,79.993 -254.527,79.536 -342.827,79.095 -430.551,55.337 -507.31,11.795 -586.573,-33.168 -652.701,-99.543 -698.332,-178.33 c -45.679,-78.866 -69.628,-169.473 -69.173,-260.58 0.441,-88.3 24.197,-176.024 67.739,-252.782 44.963,-79.264 111.34,-145.393 190.128,-191.024 78.867,-45.677 169.469,-69.627 260.576,-69.172 88.301,0.442 176.026,24.199 252.787,67.74 79.263,44.961 145.393,111.336 191.024,190.124 45.678,78.867 69.627,169.472 69.17,260.582 -0.442,88.299 -24.2,176.024 -67.742,252.783 C 151.216,-101.397 84.842,-35.269 6.057,10.361 -0.652,14.247 -6.692,3.875 0,0"
             style="fill:#32598c;fill-opacity:1;fill-rule:nonzero;stroke:none"
             id="path48" />
        </g>
        <g
           id="g50"
           transform="translate(1243.5684,4207.9521)">
          <path
             d="m 0,0 c 78.767,-45.618 144.117,-111.8 188.417,-191.337 42.824,-76.886 64.625,-164.776 63.461,-252.718 -1.209,-91.264 -28.185,-180.999 -76.227,-258.489 -47.709,-76.952 -116.233,-139.796 -196.612,-181.337 -78.195,-40.413 -166.775,-59.403 -254.641,-55.483 -91.47,4.082 -180.633,34.184 -256.735,84.887 -75.053,50.005 -135.343,120.4 -174.202,201.689 -37.974,79.435 -54.137,168.652 -47.453,256.366 6.973,91.514 40.163,180.003 93.442,254.574 52.236,73.108 124.435,130.841 206.564,167.017 80.607,35.506 170.412,48.82 257.893,39.368 C -127.123,57.085 -60.061,34.568 0,0 c 6.719,-3.867 12.76,6.503 6.057,10.361 -79.081,45.516 -169.31,69.631 -260.579,69.175 -88.301,-0.442 -176.025,-24.199 -252.784,-67.742 -79.263,-44.962 -145.392,-111.337 -191.023,-190.125 -45.678,-78.867 -69.628,-169.472 -69.172,-260.58 0.442,-88.3 24.199,-176.024 67.741,-252.783 44.962,-79.263 111.337,-145.392 190.123,-191.025 78.866,-45.678 169.474,-69.626 260.581,-69.17 88.3,0.442 176.024,24.199 252.783,67.74 79.263,44.962 145.391,111.337 191.022,190.125 45.678,78.868 69.628,169.472 69.173,260.582 -0.442,88.299 -24.199,176.024 -67.74,252.783 C 151.219,-101.396 84.844,-35.269 6.057,10.361 -0.653,14.247 -6.692,3.875 0,0"
             style="fill:#32598c;fill-opacity:1;fill-rule:nonzero;stroke:none"
             id="path52" />
        </g>
        <g
           id="g54"
           transform="translate(3891.7256,2825.959)">
          <path
             d="m 0,0 c -78.854,-45.382 -168.837,-68.874 -259.825,-67.471 -87.996,1.356 -175.016,26.405 -250.595,71.384 -78.47,46.7 -142.7,114.942 -185.807,195.33 -42.767,79.757 -62.914,170.515 -58.702,260.853 4.099,87.925 31.926,174.135 79.256,248.27 49.293,77.211 119.957,139.379 201.955,179.954 80.794,39.98 171.895,56.979 261.679,49.992 87.779,-6.832 173.128,-37.428 245.75,-87.075 75.8,-51.819 135.851,-124.819 173.808,-208.283 37.178,-81.755 51.056,-173.139 41.326,-262.308 C 239.29,293.085 205.934,208.655 154.006,137.617 113.042,81.578 60.004,34.754 0,0 c -6.691,-3.876 -0.652,-14.248 6.057,-10.361 78.92,45.71 144.904,111.792 190.122,191.024 43.766,76.69 67.07,164.534 67.741,252.781 0.694,91.169 -23.734,181.634 -69.171,260.581 -45.441,78.956 -111.93,144.987 -191.023,190.125 -76.69,43.768 -164.536,67.071 -252.784,67.742 -91.169,0.693 -181.632,-23.737 -260.58,-69.175 -78.956,-45.444 -144.985,-111.926 -190.125,-191.021 -43.766,-76.689 -67.069,-164.535 -67.74,-252.783 -0.694,-91.168 23.734,-181.633 69.171,-260.581 45.439,-78.956 111.931,-144.987 191.024,-190.124 76.69,-43.767 164.536,-67.069 252.784,-67.74 91.169,-0.694 181.632,23.735 260.581,69.171 C 12.76,-6.504 6.719,3.867 0,0"
             style="fill:#32598c;fill-opacity:1;fill-rule:nonzero;stroke:none"
             id="path56" />
        </g>
        <g
           id="g58"
           transform="translate(1243.5684,1297.0479)">
          <path
             d="m 0,0 c -78.854,-45.383 -168.834,-68.874 -259.822,-67.471 -87.995,1.356 -175.015,26.405 -250.595,71.383 -78.47,46.7 -142.699,114.942 -185.806,195.33 -42.768,79.756 -62.915,170.516 -58.703,260.853 4.1,87.925 31.928,174.135 79.258,248.271 49.292,77.209 119.954,139.381 201.951,179.955 80.796,39.979 171.896,56.979 261.681,49.991 87.779,-6.833 173.127,-37.428 245.748,-87.075 75.8,-51.82 135.85,-124.82 173.807,-208.284 37.178,-81.755 51.058,-173.138 41.329,-262.307 C 239.294,293.085 205.938,208.654 154.01,137.617 113.045,81.577 60.006,34.754 0,0 c -6.692,-3.875 -0.652,-14.247 6.057,-10.361 78.922,45.71 144.908,111.791 190.126,191.023 43.767,76.69 67.069,164.535 67.739,252.782 0.693,91.168 -23.736,181.633 -69.173,260.58 C 149.308,772.98 82.82,839.012 3.728,884.15 c -76.69,43.767 -164.535,67.071 -252.782,67.742 -91.17,0.693 -181.635,-23.737 -260.583,-69.174 -78.954,-45.442 -144.983,-111.93 -190.121,-191.022 -43.767,-76.689 -67.07,-164.536 -67.742,-252.784 -0.694,-91.169 23.734,-181.634 69.171,-260.582 45.441,-78.955 111.931,-144.985 191.024,-190.123 76.691,-43.766 164.536,-67.068 252.784,-67.739 91.167,-0.694 181.631,23.735 260.578,69.171 C 12.76,-6.503 6.719,3.867 0,0"
             style="fill:#32598c;fill-opacity:1;fill-rule:nonzero;stroke:none"
             id="path60" />
        </g>
        <g
           id="g62"
           transform="translate(2126.2852,1806.6855)">
          <path
             d="m 0,0 c -78.853,-45.383 -168.834,-68.874 -259.821,-67.472 -87.995,1.356 -175.016,26.405 -250.596,71.384 -78.47,46.699 -142.699,114.942 -185.806,195.329 -42.768,79.757 -62.915,170.516 -58.703,260.854 4.1,87.925 31.928,174.134 79.259,248.27 49.292,77.21 119.954,139.38 201.952,179.954 80.795,39.98 171.896,56.979 261.681,49.992 87.779,-6.832 173.127,-37.428 245.749,-87.075 C 109.514,799.417 169.566,726.417 207.522,642.953 244.701,561.199 258.58,469.815 248.85,380.646 239.295,293.085 205.939,208.654 154.011,137.617 113.046,81.576 60.006,34.754 0,0 c -6.692,-3.875 -0.653,-14.247 6.057,-10.361 78.922,45.709 144.909,111.79 190.128,191.023 43.766,76.69 67.069,164.535 67.74,252.782 0.693,91.168 -23.736,181.632 -69.172,260.58 -45.44,78.955 -111.932,144.988 -191.024,190.125 -76.689,43.768 -164.534,67.071 -252.781,67.742 -91.17,0.693 -181.635,-23.738 -260.584,-69.175 -78.954,-45.441 -144.983,-111.929 -190.121,-191.021 -43.767,-76.689 -67.071,-164.536 -67.743,-252.783 -0.694,-91.169 23.734,-181.634 69.171,-260.582 45.441,-78.956 111.93,-144.986 191.024,-190.124 76.691,-43.767 164.537,-67.068 252.785,-67.739 91.167,-0.693 181.631,23.735 260.577,69.172 C 12.76,-6.504 6.719,3.867 0,0"
             style="fill:#32598c;fill-opacity:1;fill-rule:nonzero;stroke:none"
             id="path64" />
        </g>
        <g
           id="g66"
           transform="translate(4774.4434,3335.5957)">
          <path
             d="m 0,0 c -78.855,-45.383 -168.837,-68.874 -259.826,-67.472 -87.995,1.357 -175.015,26.405 -250.594,71.385 -78.47,46.7 -142.697,114.942 -185.804,195.33 -42.768,79.757 -62.917,170.516 -58.706,260.853 4.099,87.925 31.926,174.135 79.256,248.271 49.292,77.21 119.956,139.379 201.954,179.954 80.794,39.98 171.896,56.979 261.68,49.991 87.78,-6.832 173.129,-37.428 245.751,-87.074 75.801,-51.82 135.85,-124.82 173.807,-208.283 37.18,-81.755 51.06,-173.139 41.33,-262.309 C 239.293,293.085 205.937,208.654 154.009,137.617 113.044,81.577 60.005,34.754 0,0 c -6.691,-3.876 -0.652,-14.248 6.057,-10.362 78.922,45.71 144.906,111.792 190.125,191.025 43.767,76.689 67.07,164.535 67.741,252.782 0.693,91.169 -23.737,181.634 -69.175,260.581 C 149.306,772.981 82.82,839.012 3.726,884.151 c -76.69,43.767 -164.537,67.07 -252.785,67.741 -91.169,0.693 -181.633,-23.736 -260.581,-69.174 -78.955,-45.443 -144.985,-111.927 -190.124,-191.021 -43.766,-76.69 -67.068,-164.536 -67.74,-252.783 -0.692,-91.169 23.736,-181.634 69.174,-260.582 45.441,-78.956 111.929,-144.986 191.022,-190.124 76.69,-43.767 164.536,-67.069 252.784,-67.74 91.169,-0.694 181.632,23.734 260.581,69.17 C 12.76,-6.504 6.719,3.866 0,0"
             style="fill:#32598c;fill-opacity:1;fill-rule:nonzero;stroke:none"
             id="path68" />
        </g>
        <g
           id="g70"
           transform="translate(997.5132,1733)">
          <path
             d="m 0,0 c -0.011,119 -0.021,238.466 -0.032,357.707 -0.022,254.595 -0.045,509.183 -0.068,763.777 -0.021,235.259 -0.041,470.514 -0.063,705.773 -0.005,62.037 -0.01,124.073 -0.016,186.11 0,6.446 -0.001,12.89 -0.002,19.335 0,8.962 1.769,4.203 -2.963,1.471 7.774,4.488 15.548,8.974 23.321,13.462 145.559,84.021 291.119,168.042 436.678,252.063 228.625,131.97 457.25,263.939 685.875,395.908 178.252,102.892 356.503,205.785 534.755,308.677 21.056,12.154 42.11,24.307 63.165,36.46 5.568,3.215 11.136,6.428 16.703,9.642 7.794,4.499 4.482,0.544 -0.306,3.309 29.082,-16.79 58.163,-33.58 87.245,-50.37 178.853,-103.261 357.707,-206.521 536.56,-309.782 228.564,-131.961 457.128,-263.922 685.692,-395.884 144.824,-83.613 289.646,-167.226 434.469,-250.84 l 16.705,-9.644 c 7.728,-4.461 2.771,-3.644 2.771,1.855 10e-4,-8.976 0,-17.951 0,-26.927 0.01,-62.416 0.011,-124.831 0.017,-187.248 0.021,-235.283 0.042,-470.566 0.063,-705.85 0.023,-254.157 0.046,-508.315 0.068,-762.472 0.01,-86.009 0.174,-172.016 0.182,-258.025 0,-24.311 0.166,-48.621 0.166,-72.933 V 6.289 c 0,-8.95 -1.923,-4.184 2.805,-1.454 -103.944,-60 -207.967,-120 -311.911,-179.999 -220.37,-127.205 -440.779,-254.409 -661.15,-381.613 -203.356,-117.383 -406.732,-234.767 -610.089,-352.151 -53.599,-30.939 -107.207,-61.878 -160.805,-92.816 -5.568,-3.213 -11.14,-6.428 -16.708,-9.642 -7.794,-4.498 -4.485,-0.544 0.303,-3.308 -7.774,4.488 -15.549,8.976 -23.324,13.465 -145.572,84.047 -291.146,168.095 -436.719,252.143 -228.646,132.01 -457.292,264.021 -685.938,396.03 C 439.18,-250.131 260.912,-147.206 82.644,-44.281 54.104,-27.805 25.565,-11.327 -2.974,5.149 -9.688,9.026 -15.728,-1.345 -9.03,-5.211 94.005,-64.7 197.04,-124.188 300.076,-183.676 c 220.138,-127.098 440.276,-254.197 660.415,-381.296 203.791,-117.66 407.582,-235.32 611.373,-352.98 54.061,-31.213 108.123,-62.425 162.184,-93.638 7.775,-4.488 15.549,-8.977 23.323,-13.466 6.018,-3.474 19.718,7.875 24.331,10.537 141.006,81.395 282.013,162.788 423.02,244.181 228.076,131.652 456.152,263.306 684.229,394.957 181.706,104.887 363.412,209.773 545.118,314.659 31.876,18.4 63.753,36.8 95.629,55.201 1.828,1.054 2.971,3.075 2.971,5.18 -0.01,118.957 -0.021,237.915 -0.032,356.873 -0.022,254.157 -0.045,508.315 -0.068,762.472 -0.021,235.284 -0.042,470.567 -0.063,705.85 -0.01,62.417 -0.011,124.832 -0.017,187.248 0,8.976 0,17.951 0,26.927 0,6.925 -16.655,13.091 -21.239,15.738 -141.019,81.417 -282.039,162.835 -423.058,244.252 -228.098,131.691 -456.194,263.383 -684.292,395.074 -181.723,104.918 -363.444,209.835 -545.168,314.752 -31.767,18.341 -63.534,36.681 -95.301,55.022 -5.8,3.348 -16.211,-5.472 -20.891,-8.175 -18.507,-10.683 -37.014,-21.365 -55.521,-32.047 -172.23,-99.417 -344.461,-198.834 -516.691,-298.25 C 941.052,2593.05 711.777,2460.705 482.501,2328.36 329.62,2240.112 176.738,2151.864 23.856,2063.616 c -11.022,-6.362 -22.044,-12.724 -33.065,-19.087 -1.829,-1.054 -2.972,-3.075 -2.972,-5.18 0.011,-119.241 0.021,-238.482 0.032,-357.723 0.023,-254.595 0.045,-509.19 0.067,-763.785 0.021,-235.259 0.042,-470.502 0.063,-705.761 C -12.013,141.382 -12.006,71 -12,0 -12,-8 0,-8 0,0"
             style="fill:#32598c;fill-opacity:1;fill-rule:nonzero;stroke:none"
             id="path72" />
        </g>
        <g
           id="g74"
           transform="translate(2760.1602,1733.9619)">
          <path
             d="m 0,0 c -51.716,29.853 -103.433,59.705 -155.148,89.558 -110.494,63.78 -220.987,127.561 -331.48,191.341 -102.288,59.045 -204.576,118.089 -306.863,177.133 -31.039,17.917 -62.077,35.833 -93.116,53.75 0.991,-1.726 1.981,-3.454 2.972,-5.18 0.005,59.855 0.011,119.71 0.016,179.566 0.012,127.799 0.024,255.598 0.036,383.397 0.01,118.093 0.021,236.186 0.032,354.279 0.004,35.488 0.007,70.976 0.01,106.465 -0.991,-1.727 -1.981,-3.454 -2.972,-5.181 51.721,29.861 103.442,59.723 155.163,89.584 110.503,63.8 221.007,127.599 331.511,191.398 102.297,59.062 204.594,118.113 306.892,177.174 31.041,17.922 62.083,35.754 93.124,53.754 h -6.056 c 51.838,-30 103.678,-59.834 155.517,-89.758 110.683,-63.889 221.366,-127.773 332.049,-191.663 102.277,-59.037 204.554,-118.072 306.831,-177.109 30.736,-17.741 61.471,-35.481 92.207,-53.223 -0.991,1.727 -1.982,3.454 -2.972,5.182 -0.006,-59.715 -0.011,-119.428 -0.017,-179.142 -0.01,-127.58 -0.022,-255.161 -0.034,-382.742 -0.011,-118.106 -0.021,-236.213 -0.032,-354.318 -0.003,-35.839 -0.007,-71.678 -0.01,-107.517 0.99,1.728 1.982,3.454 2.972,5.181 C 828.911,482.068 777.19,452.207 725.47,422.347 614.966,358.548 504.463,294.748 393.959,230.949 291.662,171.889 189.364,112.827 87.067,53.766 56.025,35.845 24.984,17.923 -6.057,0 -12.755,-3.866 -6.714,-14.237 0,-10.36 51.721,19.5 103.441,49.361 155.162,79.222 c 110.504,63.799 221.007,127.597 331.51,191.397 102.298,59.062 204.595,118.122 306.892,177.184 27.137,15.667 54.275,31.336 81.413,47.003 3.902,2.253 7.804,4.506 11.707,6.759 4.496,2.596 2.977,11.472 2.977,15.77 0.008,81.727 0.015,163.454 0.023,245.181 0.011,132.192 0.023,264.384 0.036,396.577 0.009,105.316 0.018,210.632 0.028,315.948 0.002,18.476 0.003,36.951 0.005,55.426 0,2.105 -1.144,4.126 -2.972,5.181 l -155.516,89.769 c -110.684,63.89 -221.368,127.78 -332.05,191.669 -102.278,59.038 -204.554,118.075 -306.831,177.112 -26.971,15.569 -53.941,31.136 -80.911,46.704 -3.765,2.174 -7.531,4.348 -11.296,6.521 -4.614,2.664 -11.808,-3.32 -15.629,-5.527 L -228.97,1918.621 c -114.548,-66.135 -229.096,-132.269 -343.644,-198.404 -90.935,-52.501 -181.869,-105.003 -272.803,-157.504 l -47.035,-27.155 c -4.366,-2.522 -3.09,-9.841 -3.09,-14.092 -10e-4,-10.904 -0.002,-21.808 -0.003,-32.712 l -0.028,-301.192 c -0.012,-133.011 -0.024,-266.021 -0.036,-399.032 -0.008,-87.973 -0.016,-175.947 -0.025,-263.92 l -10e-4,-18.008 c 0,-2.106 1.144,-4.126 2.971,-5.181 51.717,-29.853 103.433,-59.705 155.148,-89.558 110.494,-63.78 220.987,-127.56 331.48,-191.342 C -303.748,161.478 -201.46,102.433 -99.173,43.389 -68.134,25.472 -37.096,7.556 -6.057,-10.36 0.657,-14.237 6.697,-3.866 0,0"
             style="fill:#32598c;fill-opacity:1;fill-rule:nonzero;stroke:none"
             id="path76" />
        </g>
        <g
           id="g78"
           transform="translate(997.3169,1730.9727)">
          <path
             d="m 0,0 c 28.557,49.449 57.114,98.897 85.671,148.347 74.536,129.064 149.071,258.129 223.606,387.192 103.809,179.754 207.618,359.509 311.427,539.263 116.379,201.52 232.758,403.04 349.137,604.56 l 336.734,583.084 c 91.406,158.278 182.813,316.555 274.219,474.833 53.864,93.27 107.728,186.68 161.592,279.95 7.634,13.22 15.268,25.798 22.903,39.798 h -10.362 c 28.545,-50 57.091,-99.051 85.636,-148.507 74.505,-129.082 149.01,-258.233 223.515,-387.314 103.767,-179.779 207.534,-359.593 311.301,-539.371 116.331,-201.547 232.663,-403.112 348.996,-604.659 112.199,-194.388 224.398,-388.784 336.597,-583.171 91.369,-158.3 182.738,-316.604 274.108,-474.902 53.842,-93.283 107.684,-186.567 161.526,-279.85 7.631,-13.221 15.263,-26.443 22.894,-39.664 1.726,3.009 3.454,6.018 5.18,9.028 -57.102,0.006 -114.205,0.013 -171.307,0.02 -149.04,0.017 -298.081,0.034 -447.121,0.051 C 2698.676,8.713 2491.1,8.737 2283.523,8.761 2050.813,8.788 1818.102,8.815 1585.391,8.843 1360.947,8.868 1136.503,8.896 912.06,8.921 729.284,8.942 546.508,8.964 363.733,8.985 256.027,8.998 148.503,9.01 40.797,9.022 25.532,9.025 10.183,9.026 -4.817,9.028 c -8,10e-4 -8,-11.999 0,-12 57,-0.007 114.024,-0.013 171.126,-0.019 149.04,-0.018 297.989,-0.035 447.029,-0.053 207.577,-0.024 415.107,-0.048 622.683,-0.072 232.711,-0.028 465.399,-0.055 698.11,-0.082 224.444,-0.027 448.876,-0.052 673.321,-0.079 182.775,-0.021 365.546,-0.042 548.321,-0.064 107.705,-0.013 215.408,-0.025 323.114,-0.038 15.266,-0.002 30.529,-0.003 45.794,-0.005 4.569,0 7.453,5.093 5.181,9.029 -28.545,49.456 -57.092,98.911 -85.638,148.367 -74.505,129.081 -149.01,258.163 -223.515,387.244 -103.766,179.778 -207.534,359.556 -311.3,539.335 -116.332,201.548 -232.664,403.095 -348.996,604.642 -112.2,194.387 -224.399,388.775 -336.598,583.163 -91.368,158.298 -182.738,316.598 -274.107,474.897 -53.842,93.282 -107.685,186.564 -161.527,279.847 l -22.892,39.663 c -2.248,3.894 -8.115,3.892 -10.362,0 -28.557,-49.449 -57.114,-98.898 -85.672,-148.346 C 1594.72,2785.393 1520.185,2656.328 1445.65,2527.264 1341.841,2347.51 1238.032,2167.756 1134.223,1988.001 1017.844,1786.481 901.464,1584.961 785.085,1383.441 672.841,1189.08 560.596,994.719 448.352,800.357 356.945,642.079 265.539,483.802 174.132,325.524 120.269,232.254 66.405,138.984 12.541,45.714 4.907,32.495 -2.727,19.275 -10.361,6.057 -14.239,-0.657 -3.868,-6.697 0,0"
             style="fill:#32598c;fill-opacity:1;fill-rule:nonzero;stroke:none"
             id="path80" />
        </g>
        <g
           id="g82"
           transform="translate(992.5,3764.8252)">
          <path
             d="m 0,0 c 57,0 114.233,-0.001 171.408,-0.002 149.211,-0.002 298.365,-0.004 447.576,-0.006 207.781,-0.003 415.532,-0.005 623.312,-0.008 232.881,-0.003 465.747,-0.005 698.629,-0.008 224.514,-0.003 449.02,-0.006 673.535,-0.009 182.679,-0.003 365.355,0.105 548.034,0.102 107.377,-0.001 214.749,0.106 322.125,0.106 h 44.973 c -1.727,3 -3.454,5.909 -5.181,8.918 -28.551,-49.451 -57.1,-98.959 -85.651,-148.412 -74.518,-129.071 -149.035,-258.171 -223.554,-387.243 -103.784,-179.766 -207.569,-359.545 -311.354,-539.311 -116.352,-201.533 -232.704,-403.072 -349.055,-604.605 -112.219,-194.374 -224.438,-388.751 -336.656,-583.125 -91.385,-158.287 -182.77,-316.577 -274.156,-474.864 -53.85,-93.275 -107.701,-186.486 -161.553,-279.762 -7.632,-13.22 -15.264,-26.596 -22.897,-39.596 h 10.361 c -28.551,49 -57.103,98.84 -85.654,148.293 -74.521,129.074 -149.041,258.116 -223.562,387.189 -103.789,179.769 -207.578,359.521 -311.367,539.289 -116.356,201.535 -232.713,403.064 -349.069,604.599 -112.223,194.377 -224.446,388.749 -336.669,583.125 -91.388,158.29 -182.777,316.579 -274.166,474.869 -53.853,93.276 -107.707,186.553 -161.56,279.83 C 20.216,-17.411 12.583,-4.191 4.951,9.03 1.084,15.727 -9.287,9.687 -5.411,2.973 c 28.552,-49.453 57.103,-98.907 85.655,-148.36 74.521,-129.073 149.041,-258.147 223.562,-387.221 103.789,-179.769 207.578,-359.537 311.367,-539.306 116.356,-201.535 232.713,-403.071 349.069,-604.607 112.223,-194.376 224.446,-388.752 336.669,-583.129 91.388,-158.29 182.777,-316.58 274.166,-474.871 53.853,-93.277 107.706,-186.553 161.56,-279.831 7.633,-13.22 15.265,-26.441 22.898,-39.661 2.247,-3.892 8.114,-3.892 10.361,0 28.551,49.452 57.102,98.905 85.652,148.357 74.517,129.072 149.035,258.144 223.554,387.217 103.784,179.765 207.569,359.53 311.354,539.295 116.352,201.534 232.703,403.067 349.055,604.599 112.218,194.373 224.437,388.747 336.656,583.12 91.385,158.288 182.77,316.576 274.154,474.864 53.852,93.276 107.703,186.551 161.554,279.827 7.633,13.22 15.266,26.44 22.897,39.66 2.273,3.936 -0.614,9.029 -5.18,9.029 -57.175,0 -114.349,10e-4 -171.524,0.002 -149.211,0.002 -298.422,0.004 -447.633,0.006 -207.781,0.002 -415.56,0.005 -623.34,0.008 -232.881,0.003 -465.763,0.006 -698.644,0.008 -224.514,0.003 -449.028,0.006 -673.542,0.009 C 732.23,11.991 549.551,12.081 366.872,12.083 259.495,12.084 152.119,12.175 44.743,12.175 H 0 C -8,12.175 -8,0 0,0"
             style="fill:#32598c;fill-opacity:1;fill-rule:nonzero;stroke:none"
             id="path84" />
        </g>
        <g
           id="g86"
           transform="translate(1880.6558,2240.6104)">
          <path
             d="m 0,0 c 14.265,24.701 28.53,49.401 42.794,74.103 37.232,64.469 74.463,128.939 111.695,193.409 51.855,89.79 103.709,179.58 155.563,269.37 58.134,100.663 116.267,201.326 174.4,301.989 56.069,97.086 112.136,194.173 168.205,291.26 45.659,79.062 91.318,158.125 136.977,237.187 26.906,46.59 53.811,93.426 80.718,140.016 3.813,6.603 7.626,13.056 11.44,20.056 H 871.43 c 14.259,-25 28.518,-49.655 42.778,-74.358 37.215,-64.479 74.432,-129.08 111.648,-193.558 51.834,-89.803 103.667,-179.666 155.501,-269.469 58.109,-100.677 116.219,-201.383 174.329,-302.06 56.045,-97.1 112.091,-194.215 168.137,-291.315 45.64,-79.073 91.28,-158.154 136.921,-237.227 26.895,-46.595 53.79,-93.196 80.685,-139.792 3.812,-6.604 7.624,-13.211 11.436,-19.815 1.726,3.01 3.454,6.018 5.18,9.028 -28.523,0.003 -57.047,0.006 -85.571,0.009 L 1449.129,8.859 C 1345.442,8.871 1241.754,8.883 1138.067,8.896 1021.823,8.908 905.581,8.922 789.337,8.937 677.224,8.949 565.11,8.962 452.997,8.975 c -91.3,0.011 -182.6,0.021 -273.899,0.033 -53.801,0.006 -107.59,0.013 -161.39,0.018 -7.625,0 -14.864,0.002 -22.864,0.003 -8,0 -8,-12 0,-12 28,-0.004 57.035,-0.008 85.559,-0.01 74.448,-0.009 148.89,-0.018 223.338,-0.027 103.688,-0.012 207.372,-0.023 311.06,-0.036 116.243,-0.014 232.485,-0.026 348.728,-0.04 112.113,-0.014 224.226,-0.026 336.34,-0.04 91.299,-0.01 182.598,-0.022 273.898,-0.031 53.801,-0.007 107.602,-0.013 161.402,-0.02 7.625,0 15.251,-0.001 22.876,-0.003 4.567,0 7.454,5.093 5.181,9.029 l -42.776,74.112 c -37.217,64.478 -74.434,128.957 -111.651,193.434 -51.833,89.803 -103.666,179.606 -155.5,269.409 -58.109,100.675 -116.219,201.352 -174.329,302.028 -56.045,97.1 -112.091,194.2 -168.137,291.3 -45.64,79.073 -91.281,158.146 -136.92,237.22 -26.896,46.595 -53.791,93.191 -80.686,139.788 -3.811,6.604 -7.623,13.208 -11.435,19.812 -2.248,3.894 -8.114,3.892 -10.362,0 -14.265,-24.701 -28.53,-49.401 -42.794,-74.101 -37.232,-64.47 -74.464,-128.94 -111.695,-193.41 C 665.086,1175.653 613.232,1085.862 561.378,996.072 503.245,895.409 445.111,794.747 386.978,694.084 330.91,596.997 274.842,499.911 218.773,402.824 173.115,323.762 127.456,244.699 81.796,165.637 54.891,119.047 27.985,72.457 1.079,25.867 -2.735,19.264 -6.548,12.66 -10.361,6.058 -14.239,-0.656 -3.868,-6.696 0,0"
             style="fill:#32598c;fill-opacity:1;fill-rule:nonzero;stroke:none"
             id="path88" />
        </g>
        <g
           id="g90"
           transform="translate(1875.5,3252)">
          <path
             d="m 0,0 h 85.695 223.603 311.373 348.989 336.45 273.757 160.911 22.465 c -1.726,3 -3.454,5.916 -5.18,8.926 -14.262,-24.702 -28.525,-49.456 -42.787,-74.158 -37.223,-64.475 -74.448,-128.974 -111.672,-193.449 -51.844,-89.796 -103.689,-179.605 -155.533,-269.401 -58.122,-100.67 -116.243,-201.346 -174.365,-302.016 -56.057,-97.093 -112.113,-194.19 -168.171,-291.283 -45.649,-79.068 -91.3,-158.138 -136.95,-237.205 -26.9,-46.594 -53.801,-93.099 -80.701,-139.691 -3.814,-6.604 -7.626,-13.723 -11.438,-19.723 h 10.361 c -14.28,25 -28.559,49.378 -42.84,74.111 -37.267,64.549 -74.534,129.054 -111.801,193.603 -51.895,89.885 -103.791,179.749 -155.686,269.635 -58.165,100.744 -116.329,201.477 -174.494,302.221 -56.074,97.125 -112.149,194.244 -168.224,291.369 -45.626,79.028 -91.252,158.052 -136.878,237.079 -26.819,46.451 -53.637,92.9 -80.456,139.352 C 12.684,-4.145 8.94,2.339 5.196,8.824 1.329,15.521 -9.042,9.481 -5.166,2.767 c 14.28,-24.733 28.56,-49.468 42.84,-74.202 37.267,-64.548 74.534,-129.097 111.802,-193.646 51.895,-89.885 103.79,-179.771 155.686,-269.657 58.164,-100.744 116.329,-201.489 174.493,-302.234 56.075,-97.124 112.15,-194.249 168.225,-291.374 45.626,-79.027 91.252,-158.053 136.878,-237.081 l 80.455,-139.353 c 3.745,-6.485 7.489,-12.97 11.233,-19.455 2.247,-3.892 8.115,-3.892 10.361,0 14.262,24.702 28.524,49.405 42.787,74.107 37.223,64.474 74.447,128.948 111.672,193.422 51.844,89.797 103.688,179.593 155.532,269.39 58.122,100.67 116.243,201.338 174.366,302.008 56.056,97.094 112.113,194.187 168.17,291.281 45.65,79.068 91.301,158.135 136.95,237.203 26.901,46.594 53.802,93.186 80.702,139.78 3.813,6.603 7.625,13.31 11.438,19.913 2.272,3.937 -0.614,9.131 -5.181,9.131 H 1677.563 1453.96 1142.587 793.598 457.148 L 183.391,12 H 22.48 0 C -8,12 -8,0 0,0"
             style="fill:#32598c;fill-opacity:1;fill-rule:nonzero;stroke:none"
             id="path92" />
        </g>
        <g
           id="g94"
           transform="translate(1876.3105,2247.9199)">
          <path
             d="m 0,0 c 31.25,89.556 62.5,179.11 93.749,268.665 74.316,212.976 148.633,425.951 222.95,638.927 88.235,252.862 176.47,505.725 264.705,758.588 73.005,209.216 146.01,418.432 219.014,627.649 28.701,82.248 57.4,164.495 86.1,246.743 -3.929,0.532 -7.857,1.063 -11.786,1.595 0.002,-66.025 0.004,-132.05 0.005,-198.075 0.005,-172.31 0.009,-344.619 0.013,-516.929 0.006,-239.945 0.012,-479.89 0.018,-719.835 0.007,-268.932 0.014,-537.863 0.02,-806.795 0.007,-259.268 0.013,-518.538 0.02,-777.807 0.005,-210.959 0.01,-421.917 0.015,-632.875 0.004,-123.998 0.007,-247.997 0.01,-371.996 l 10e-4,-51.934 c 0,-7.017 9.623,-7.849 11.786,-1.596 30.888,89.323 61.776,178.646 92.663,267.969 73.545,212.681 147.091,425.362 220.636,638.043 l 262.576,759.328 c 72.828,210.608 145.656,421.216 218.484,631.824 29.477,85.24 58.954,170.482 88.429,255.722 1.008,2.912 -1.121,6.797 -4.19,7.381 l -279.475,53.206 c -221.612,42.19 -443.224,84.381 -664.837,126.571 -263.273,50.121 -526.546,100.242 -789.819,150.364 l -654.422,124.588 c -86.388,16.447 -172.776,32.893 -259.164,49.34 -6.467,1.231 -10.791,-7.407 -4.623,-10.967 57.174,-32.998 114.348,-65.995 171.521,-98.993 149.209,-86.116 298.419,-172.232 447.628,-258.348 C -60.195,1040.435 147.583,920.516 355.36,800.598 588.239,666.192 821.117,531.787 1053.996,397.382 1278.507,267.806 1503.019,138.229 1727.53,8.653 c 182.677,-105.432 365.354,-210.864 548.031,-316.296 107.376,-61.97 214.751,-123.942 322.126,-185.913 14.99,-8.652 29.981,-17.303 44.971,-25.956 l 4.623,10.966 c -92.771,18.053 -185.544,36.104 -278.315,54.155 -220.895,42.983 -441.789,85.965 -662.684,128.947 -262.884,51.152 -525.768,102.304 -788.652,153.456 C 698.889,-129.425 480.148,-86.862 261.407,-44.299 172.875,-27.072 84.342,-9.846 -4.19,7.382 -11.75,8.853 -14.972,-2.713 -7.381,-4.189 c 92.773,-18.053 185.545,-36.104 278.317,-54.157 220.894,-42.981 441.788,-85.963 662.683,-128.945 262.884,-51.152 525.768,-102.305 788.652,-153.456 218.741,-42.564 437.482,-85.127 656.223,-127.69 88.532,-17.226 177.065,-34.454 265.598,-51.68 6.475,-1.26 10.776,7.416 4.623,10.967 -57.174,32.998 -114.348,65.995 -171.522,98.993 -149.209,86.116 -298.419,172.231 -447.628,258.347 C 1821.787,-31.891 1614.01,88.028 1406.232,207.946 1173.354,342.352 940.476,476.757 707.597,611.162 483.086,740.738 258.574,870.315 34.063,999.892 c -182.677,105.431 -365.354,210.863 -548.031,316.295 -107.375,61.971 -214.75,123.942 -322.125,185.914 -14.991,8.651 -29.982,17.303 -44.972,25.955 -1.541,-3.656 -3.082,-7.311 -4.624,-10.967 93.158,-17.735 186.316,-35.47 279.475,-53.206 221.612,-42.19 443.225,-84.38 664.837,-126.57 263.273,-50.122 526.546,-100.244 789.819,-150.366 218.141,-41.529 436.282,-83.058 654.422,-124.588 86.388,-16.446 172.777,-32.892 259.164,-49.338 -1.397,2.459 -2.794,4.92 -4.19,7.38 -30.889,-89.323 -61.776,-178.645 -92.664,-267.967 -73.545,-212.682 -147.09,-425.363 -220.636,-638.043 -87.525,-253.11 -175.051,-506.22 -262.576,-759.329 -72.828,-210.608 -145.656,-421.216 -218.485,-631.824 -29.476,-85.24 -58.953,-170.481 -88.429,-255.722 3.929,-0.532 7.857,-1.063 11.786,-1.595 -10e-4,66.024 -0.004,132.05 -0.005,198.075 -0.004,172.31 -0.009,344.619 -0.013,516.929 -0.006,239.945 -0.012,479.889 -0.017,719.835 -0.007,268.931 -0.015,537.863 -0.021,806.794 -0.007,259.27 -0.012,518.539 -0.019,777.808 -0.005,210.959 -0.011,421.917 -0.016,632.875 -0.003,123.999 -0.006,247.997 -0.01,371.996 0,17.311 0,34.622 -10e-4,51.934 0,7.028 -9.608,7.834 -11.785,1.595 -31.25,-89.554 -62.5,-179.11 -93.749,-268.664 C 706.881,2062.122 632.564,1849.146 558.248,1636.171 470.013,1383.309 381.778,1130.445 293.543,877.583 220.538,668.367 147.533,459.149 74.528,249.934 45.828,167.687 17.128,85.438 -11.571,3.19 -14.128,-4.135 -2.532,-7.257 0,0"
             style="fill:#32598c;fill-opacity:1;fill-rule:nonzero;stroke:none"
             id="path96" />
        </g>
        <g
           id="g98"
           transform="translate(4517.8398,3775.0376)">
          <path
             d="m 0,0 c -47.55,-54.663 -95.1,-109.325 -142.648,-163.987 -117.656,-135.255 -235.311,-270.511 -352.966,-405.765 -150.272,-172.75 -300.542,-345.5 -450.814,-518.25 -145.397,-167.148 -290.795,-334.295 -436.192,-501.442 -103.034,-118.447 -206.068,-237.087 -309.103,-355.534 -26.927,-30.955 -53.855,-62.06 -80.783,-93.06 h 8.485 c -47.451,55 -94.903,110.233 -142.354,165.252 -117.314,136.027 -234.629,272.148 -351.943,408.174 -149.617,173.48 -299.233,347.007 -448.849,520.487 -144.358,167.382 -288.716,334.789 -433.074,502.172 -101.539,117.733 -203.078,235.48 -304.617,353.213 -25.507,29.576 -51.015,59.158 -76.522,88.734 -5.063,5.87 -13.512,-2.654 -8.486,-8.482 47.452,-55.02 94.904,-110.038 142.355,-165.059 117.314,-136.025 234.629,-272.05 351.943,-408.076 149.616,-173.479 299.233,-346.959 448.849,-520.438 144.358,-167.383 288.716,-334.765 433.074,-502.147 101.539,-117.734 203.078,-235.468 304.617,-353.202 25.507,-29.576 51.015,-59.152 76.522,-88.728 2.032,-2.356 6.45,-2.339 8.485,0 47.55,54.663 95.099,109.325 142.649,163.987 117.655,135.255 235.309,270.511 352.965,405.766 150.271,172.75 300.543,345.5 450.813,518.25 145.399,167.147 290.796,334.294 436.194,501.442 103.034,118.446 206.068,236.894 309.102,355.34 26.928,30.956 53.855,61.912 80.782,92.868 C 13.539,-2.675 5.087,5.849 0,0"
             style="fill:#32598c;fill-opacity:1;fill-rule:nonzero;stroke:none"
             id="path100" />
        </g>
        <g
           id="g102"
           transform="translate(2762.9307,715.4355)">
          <path
             d="m 0,0 c -31.254,89.576 -62.507,179.151 -93.76,268.728 -74.325,213.025 -148.65,426.05 -222.975,639.076 -88.245,252.921 -176.491,505.842 -264.736,758.765 -73.013,209.265 -146.027,418.531 -219.04,627.796 -28.703,82.267 -57.406,164.533 -86.109,246.8 -1.397,-2.46 -2.794,-4.92 -4.191,-7.38 92.775,18.047 185.55,36.094 278.325,54.14 220.902,42.971 441.803,85.941 662.705,128.912 262.892,51.138 525.785,102.276 788.677,153.416 218.748,42.551 437.496,85.102 656.244,127.654 88.536,17.222 177.071,34.445 265.606,51.666 -1.541,3.656 -3.082,7.312 -4.623,10.967 -57.177,-32.991 -114.352,-65.982 -171.529,-98.973 -149.217,-86.098 -298.433,-172.197 -447.65,-258.296 C 929.157,2583.377 721.369,2463.483 513.582,2343.589 280.692,2209.21 47.804,2074.833 -185.085,1940.454 c -224.522,-129.55 -449.045,-259.1 -673.566,-388.65 -182.686,-105.41 -365.372,-210.821 -548.057,-316.232 -107.38,-61.958 -214.761,-123.917 -322.141,-185.876 -14.991,-8.65 -29.983,-17.3 -44.974,-25.95 -6.16,-3.555 -1.848,-12.212 4.624,-10.967 93.114,17.925 186.229,35.849 279.343,53.773 221.508,42.639 443.017,85.278 664.525,127.918 263.15,50.654 526.3,101.309 789.45,151.964 218.038,41.971 436.076,83.942 654.114,125.914 86.348,16.622 172.696,33.243 259.042,49.864 3.068,0.591 5.201,4.465 4.191,7.381 -31.017,89.602 -62.034,179.204 -93.052,268.806 -73.787,213.155 -147.573,426.308 -221.36,639.461 -87.658,253.224 -175.316,506.449 -262.974,759.672 -72.631,209.815 -145.262,419.629 -217.892,629.443 -28.763,83.09 -57.527,166.181 -86.291,249.272 -2.514,7.266 -14.109,4.142 -11.57,-3.191 31.017,-89.602 62.034,-179.204 93.052,-268.807 73.787,-213.153 147.573,-426.307 221.36,-639.46 87.657,-253.225 175.316,-506.448 262.974,-759.672 72.631,-209.815 145.262,-419.629 217.892,-629.443 28.763,-83.091 57.527,-166.181 86.291,-249.272 1.396,2.46 2.792,4.921 4.19,7.381 -93.115,-17.924 -186.23,-35.848 -279.344,-53.771 -221.509,-42.64 -443.016,-85.279 -664.525,-127.918 -263.15,-50.656 -526.3,-101.311 -789.449,-151.965 -218.039,-41.971 -436.077,-83.942 -654.116,-125.914 -86.347,-16.621 -172.694,-33.242 -259.042,-49.864 1.541,-3.656 3.083,-7.311 4.624,-10.966 57.176,32.99 114.353,65.981 171.529,98.973 149.216,86.098 298.433,172.197 447.65,258.295 207.787,119.895 415.574,239.788 623.362,359.683 232.889,134.378 465.778,268.756 698.667,403.135 224.522,129.55 449.044,259.1 673.567,388.65 182.685,105.41 365.371,210.82 548.056,316.231 107.38,61.959 214.76,123.918 322.141,185.877 14.991,8.65 29.982,17.299 44.974,25.95 6.153,3.55 1.852,12.226 -4.623,10.966 -92.776,-18.047 -185.55,-36.094 -278.326,-54.141 -220.901,-42.97 -441.802,-85.941 -662.704,-128.911 -262.892,-51.139 -525.785,-102.277 -788.677,-153.416 -218.748,-42.551 -437.496,-85.103 -656.245,-127.655 -88.535,-17.222 -177.07,-34.444 -265.606,-51.666 -3.06,-0.595 -5.209,-4.462 -4.19,-7.38 31.253,-89.577 62.506,-179.153 93.759,-268.728 74.326,-213.025 148.65,-426.051 222.975,-639.076 88.246,-252.922 176.491,-505.843 264.736,-758.766 73.013,-209.264 146.027,-418.53 219.04,-627.795 C -68.978,161.344 -40.275,79.077 -11.572,-3.19 -9.04,-10.447 2.556,-7.326 0,0"
             style="fill:#32598c;fill-opacity:1;fill-rule:nonzero;stroke:none"
             id="path104" />
        </g>
        <g
           id="g106"
           transform="translate(4526.2402,1737.8311)">
          <path
             d="m 0,0 c -47.348,54.796 -94.694,109.592 -142.041,164.387 -117.154,135.584 -234.308,271.169 -351.462,406.754 -149.631,173.171 -299.262,346.341 -448.893,519.511 -144.778,167.555 -289.556,335.11 -434.333,502.664 -102.596,118.736 -205.192,237.471 -307.787,356.206 -26.813,31.032 -53.626,62.062 -80.439,93.094 -2.029,2.349 -6.455,2.348 -8.485,0 -47.423,-54.874 -94.845,-109.748 -142.268,-164.622 -117.317,-135.749 -234.634,-271.498 -351.951,-407.248 -149.785,-173.318 -299.57,-346.637 -449.355,-519.955 -144.825,-167.581 -289.651,-335.161 -434.477,-502.741 -102.44,-118.535 -204.88,-237.071 -307.32,-355.606 -26.512,-30.676 -53.024,-61.354 -79.536,-92.031 -5.033,-5.824 3.417,-14.351 8.486,-8.486 47.423,54.874 94.845,109.748 142.268,164.621 117.317,135.75 234.634,271.499 351.951,407.249 149.785,173.318 299.57,346.637 449.354,519.955 144.826,167.581 289.652,335.161 434.477,502.741 102.44,118.535 204.88,237.09 307.321,355.624 26.511,30.678 53.023,61.052 79.535,92.052 h -8.485 c 47.347,-55 94.694,-109.61 142.041,-164.405 117.153,-135.585 234.307,-271.179 351.461,-406.764 149.631,-173.171 299.262,-346.346 448.893,-519.517 C -686.267,775.929 -541.488,608.371 -396.71,440.817 -294.115,322.082 -191.52,203.345 -88.925,84.609 -62.111,53.579 -35.299,22.547 -8.486,-8.484 -3.418,-14.35 5.032,-5.824 0,0"
             style="fill:#32598c;fill-opacity:1;fill-rule:nonzero;stroke:none"
             id="path108" />
        </g>
      </g>
    </g>
  </g>
</svg>
