<?xml version="1.0" encoding="utf-8"?>
<!-- Generator: Adobe Illustrator 25.2.3, SVG Export Plug-In . SVG Version: 6.00 Build 0)  -->
<svg version="1.1" xmlns="http://www.w3.org/2000/svg" xmlns:xlink="http://www.w3.org/1999/xlink" x="0px" y="0px"
	 viewBox="0 0 5514.43 5488" style="enable-background:new 0 0 5514.43 5488;" xml:space="preserve">
<style type="text/css">
	.st0{fill:#FFFFFF;stroke:#32598C;stroke-width:15;stroke-miterlimit:10;}
</style>
<g id="Ebene_1">
	<g>
		<g>
			<path class="st0" d="M3260.85,1716.23c-0.13,92.22-25.45,183.06-73.36,261.88c-46.38,76.3-113.25,139.32-191.72,181.79
				c-81.55,44.13-174.72,64.17-267.19,59.18c-91.35-4.93-180.28-35.61-255.78-87.12c-73.78-50.34-133.19-120.6-171.43-201.23
				c-39.89-84.11-54.79-178.93-44.67-271.33c9.9-90.38,45.44-177.04,100.47-249.26c54.04-70.92,127.61-126.95,210.15-160.56
				c86.39-35.18,182.31-45.46,274.26-29.97c89.21,15.03,173.53,54.64,242.34,113.31c68.16,58.11,120.22,134.28,149.49,218.92
				C3251.69,1604.66,3260.78,1660.35,3260.85,1716.23c0.01,7.74,12.01,7.74,12,0c-0.13-92.45-25.02-183.81-72.22-263.34
				c-45.66-76.93-111.66-141.28-189.38-185.48c-80.51-45.79-173.01-68.61-265.54-66.69c-92.07,1.91-182.86,29.05-261.01,77.69
				c-75.95,47.27-138.96,114.56-181.52,193.21c-44.19,81.66-65.08,174.87-61.1,267.55c3.94,91.76,32.94,181.7,83.08,258.62
				c48.87,74.96,117.4,136.6,196.97,177.49c82.75,42.53,176.6,61.49,269.38,55.46c91.44-5.95,180.49-36.79,256.16-88.42
				c73.94-50.45,134.19-120.21,173.4-200.67c34.14-70.05,51.67-147.54,51.77-225.42
				C3272.86,1708.49,3260.86,1708.49,3260.85,1716.23z"/>
		</g>
		<g>
			<path class="st0" d="M3260.85,4774.05c-0.13,92.22-25.45,183.06-73.36,261.88c-46.38,76.3-113.25,139.33-191.72,181.79
				c-81.55,44.13-174.72,64.17-267.19,59.18c-91.35-4.93-180.28-35.61-255.78-87.13c-73.78-50.34-133.19-120.6-171.43-201.23
				c-39.89-84.11-54.79-178.93-44.67-271.33c9.9-90.38,45.44-177.04,100.47-249.26c54.04-70.92,127.61-126.94,210.15-160.56
				c86.39-35.18,182.31-45.46,274.26-29.97c89.21,15.03,173.53,54.64,242.34,113.31c68.16,58.11,120.22,134.28,149.49,218.92
				C3251.69,4662.48,3260.78,4718.18,3260.85,4774.05c0.01,7.74,12.01,7.74,12,0c-0.13-92.45-25.02-183.81-72.22-263.34
				c-45.65-76.93-111.66-141.28-189.38-185.48c-80.51-45.79-173.01-68.61-265.54-66.69c-92.07,1.91-182.86,29.04-261.01,77.68
				c-75.95,47.27-138.96,114.55-181.52,193.2c-44.19,81.66-65.08,174.87-61.1,267.56c3.94,91.76,32.94,181.7,83.08,258.62
				c48.87,74.96,117.4,136.6,196.97,177.49c82.75,42.53,176.6,61.5,269.38,55.46c91.44-5.95,180.49-36.79,256.16-88.42
				c73.94-50.45,134.19-120.21,173.4-200.67c34.14-70.05,51.67-147.53,51.77-225.42
				C3272.86,4766.31,3260.86,4766.31,3260.85,4774.05z"/>
		</g>
		<g>
			<path class="st0" d="M3260.85,3754.77c-0.13,92.22-25.45,183.06-73.36,261.88c-46.38,76.3-113.25,139.33-191.72,181.79
				c-81.55,44.13-174.72,64.17-267.19,59.18c-91.35-4.93-180.28-35.61-255.78-87.13c-73.78-50.34-133.19-120.6-171.43-201.23
				c-39.89-84.11-54.79-178.93-44.67-271.33c9.9-90.38,45.44-177.04,100.47-249.26c54.04-70.92,127.61-126.94,210.15-160.56
				c86.39-35.18,182.31-45.46,274.26-29.97c89.21,15.03,173.53,54.64,242.34,113.31c68.16,58.11,120.22,134.28,149.49,218.92
				C3251.69,3643.2,3260.78,3698.9,3260.85,3754.77c0.01,7.74,12.01,7.74,12,0c-0.13-92.45-25.02-183.81-72.22-263.34
				c-45.65-76.93-111.66-141.28-189.38-185.48c-80.51-45.79-173.01-68.61-265.54-66.69c-92.07,1.91-182.86,29.04-261.01,77.68
				c-75.95,47.27-138.96,114.55-181.52,193.2c-44.19,81.66-65.08,174.87-61.1,267.55c3.94,91.76,32.94,181.7,83.08,258.62
				c48.87,74.96,117.4,136.6,196.97,177.49c82.75,42.53,176.6,61.5,269.38,55.46c91.44-5.95,180.49-36.79,256.16-88.42
				c73.94-50.45,134.19-120.21,173.4-200.67c34.14-70.05,51.67-147.54,51.77-225.42
				C3272.86,3747.03,3260.86,3747.04,3260.85,3754.77z"/>
		</g>
		<g>
			<path class="st0" d="M3260.85,696.95c-0.13,92.22-25.45,183.06-73.36,261.88c-46.38,76.3-113.25,139.32-191.72,181.79
				c-81.55,44.13-174.72,64.17-267.19,59.18c-91.35-4.93-180.28-35.61-255.78-87.12c-73.78-50.34-133.19-120.6-171.43-201.23
				c-39.89-84.11-54.79-178.93-44.67-271.33c9.9-90.38,45.44-177.04,100.47-249.26c54.04-70.92,127.61-126.95,210.15-160.56
				c86.39-35.18,182.31-45.46,274.26-29.97c89.21,15.03,173.53,54.64,242.34,113.31c68.16,58.11,120.22,134.28,149.49,218.92
				C3251.69,585.38,3260.78,641.08,3260.85,696.95c0.01,7.74,12.01,7.74,12,0c-0.13-92.45-25.02-183.81-72.22-263.34
				c-45.66-76.93-111.66-141.28-189.38-185.48c-80.51-45.79-173.01-68.61-265.54-66.69c-92.07,1.91-182.86,29.05-261.01,77.69
				c-75.95,47.27-138.96,114.55-181.52,193.2c-44.19,81.66-65.08,174.86-61.1,267.55c3.94,91.76,32.94,181.7,83.08,258.62
				c48.87,74.96,117.4,136.6,196.97,177.49c82.75,42.53,176.6,61.49,269.38,55.46c91.44-5.95,180.49-36.79,256.16-88.42
				c73.94-50.45,134.19-120.21,173.4-200.67c34.14-70.05,51.67-147.54,51.77-225.42C3272.86,689.21,3260.86,689.21,3260.85,696.95z"
				/>
		</g>
		<g>
			<path class="st0" d="M3009.01,2299.32c78.77,45.62,144.11,111.8,188.42,191.34c42.82,76.89,64.63,164.78,63.46,252.72
				c-1.21,91.27-28.19,181-76.23,258.49c-47.71,76.95-116.23,139.8-196.61,181.34c-78.2,40.41-166.78,59.4-254.64,55.48
				c-91.47-4.08-180.63-34.19-256.73-84.89c-75.05-50-135.34-120.4-174.2-201.69c-37.97-79.44-54.14-168.65-47.45-256.37
				c6.97-91.51,40.16-180,93.44-254.57c52.23-73.11,124.43-130.84,206.56-167.02c80.61-35.51,170.41-48.82,257.89-39.37
				C2881.88,2242.24,2948.94,2264.75,3009.01,2299.32c6.72,3.87,12.76-6.5,6.06-10.36c-79.08-45.51-169.31-69.63-260.58-69.17
				c-88.3,0.44-176.03,24.2-252.78,67.74c-79.26,44.96-145.39,111.34-191.02,190.12c-45.68,78.87-69.63,169.47-69.17,260.58
				c0.44,88.3,24.2,176.02,67.74,252.78c44.96,79.26,111.34,145.39,190.13,191.02c78.87,45.68,169.47,69.63,260.58,69.17
				c88.3-0.44,176.03-24.2,252.79-67.74c79.26-44.96,145.39-111.34,191.02-190.12c45.68-78.87,69.63-169.47,69.17-260.58
				c-0.44-88.3-24.2-176.02-67.74-252.78c-44.96-79.26-111.34-145.39-190.12-191.02
				C3008.35,2285.08,3002.31,2295.45,3009.01,2299.32z"/>
		</g>
		<g>
			<path class="st0" d="M2126.29,1789.69c78.77,45.62,144.12,111.8,188.42,191.34c42.82,76.89,64.63,164.78,63.46,252.72
				c-1.21,91.27-28.19,181-76.23,258.49c-47.71,76.95-116.23,139.8-196.61,181.34c-78.19,40.41-166.77,59.4-254.64,55.48
				c-91.47-4.08-180.63-34.18-256.73-84.89c-75.05-50-135.34-120.4-174.2-201.69c-37.97-79.43-54.14-168.65-47.45-256.37
				c6.97-91.51,40.16-180,93.44-254.57c52.23-73.11,124.43-130.84,206.56-167.02c80.61-35.51,170.41-48.82,257.89-39.37
				C1999.16,1732.6,2066.22,1755.12,2126.29,1789.69c6.72,3.87,12.76-6.5,6.06-10.36c-79.08-45.52-169.31-69.63-260.58-69.17
				c-88.3,0.44-176.02,24.2-252.78,67.74c-79.26,44.96-145.39,111.34-191.02,190.12c-45.68,78.87-69.63,169.47-69.17,260.58
				c0.44,88.3,24.2,176.02,67.74,252.78c44.96,79.26,111.34,145.39,190.12,191.02c78.87,45.68,169.47,69.63,260.58,69.17
				c88.3-0.44,176.02-24.2,252.78-67.74c79.26-44.96,145.39-111.34,191.02-190.12c45.68-78.87,69.63-169.47,69.17-260.58
				c-0.44-88.3-24.2-176.02-67.74-252.78c-44.96-79.26-111.34-145.39-190.12-191.02
				C2125.63,1775.44,2119.59,1785.81,2126.29,1789.69z"/>
		</g>
		<g>
			<path class="st0" d="M4774.44,3318.6c78.77,45.62,144.11,111.8,188.41,191.34c42.82,76.89,64.63,164.78,63.46,252.72
				c-1.21,91.27-28.18,181-76.23,258.49c-47.71,76.95-116.23,139.79-196.61,181.34c-78.2,40.41-166.78,59.4-254.64,55.48
				c-91.47-4.08-180.63-34.19-256.73-84.89c-75.05-50-135.34-120.4-174.2-201.69c-37.97-79.44-54.13-168.65-47.45-256.36
				c6.97-91.51,40.16-180,93.44-254.57c52.23-73.11,124.43-130.84,206.56-167.02c80.61-35.51,170.41-48.82,257.89-39.37
				C4647.32,3261.51,4714.38,3284.03,4774.44,3318.6c6.72,3.87,12.76-6.5,6.06-10.36c-79.08-45.51-169.31-69.63-260.58-69.17
				c-88.3,0.44-176.02,24.2-252.78,67.74c-79.26,44.96-145.39,111.34-191.02,190.13c-45.68,78.87-69.63,169.47-69.17,260.58
				c0.44,88.3,24.2,176.02,67.74,252.78c44.96,79.26,111.34,145.39,190.12,191.02c78.87,45.68,169.47,69.63,260.58,69.17
				c88.3-0.44,176.03-24.2,252.79-67.74c79.26-44.96,145.39-111.34,191.02-190.12c45.68-78.87,69.63-169.47,69.17-260.58
				c-0.44-88.3-24.2-176.02-67.74-252.78c-44.96-79.26-111.34-145.39-190.12-191.02C4773.79,3304.35,4767.75,3314.72,4774.44,3318.6
				z"/>
		</g>
		<g>
			<path class="st0" d="M3891.73,2808.96c78.76,45.62,144.11,111.8,188.41,191.34c42.82,76.89,64.63,164.78,63.46,252.72
				c-1.21,91.26-28.18,181-76.22,258.49c-47.71,76.95-116.24,139.8-196.62,181.34c-78.2,40.41-166.78,59.4-254.64,55.48
				c-91.47-4.08-180.63-34.19-256.73-84.89c-75.05-50-135.35-120.4-174.21-201.69c-37.97-79.44-54.13-168.65-47.45-256.37
				c6.97-91.51,40.16-180,93.44-254.57c52.23-73.11,124.43-130.84,206.56-167.02c80.61-35.51,170.41-48.82,257.89-39.37
				C3764.6,2751.87,3831.66,2774.39,3891.73,2808.96c6.72,3.87,12.76-6.5,6.06-10.36c-79.08-45.52-169.31-69.63-260.58-69.17
				c-88.3,0.44-176.02,24.2-252.78,67.74c-79.26,44.96-145.39,111.34-191.02,190.12c-45.68,78.87-69.63,169.47-69.17,260.58
				c0.44,88.3,24.2,176.02,67.74,252.78c44.96,79.26,111.34,145.39,190.13,191.02c78.87,45.68,169.47,69.63,260.58,69.17
				c88.3-0.44,176.03-24.2,252.79-67.74c79.26-44.96,145.39-111.34,191.02-190.12c45.68-78.87,69.63-169.47,69.17-260.58
				c-0.44-88.3-24.2-176.02-67.74-252.78c-44.96-79.26-111.33-145.39-190.12-191.02
				C3891.07,2794.71,3885.03,2805.08,3891.73,2808.96z"/>
		</g>
		<g>
			<path class="st0" d="M1243.57,1280.05c78.77,45.62,144.12,111.8,188.42,191.34c42.82,76.89,64.62,164.78,63.46,252.72
				c-1.21,91.26-28.19,181-76.23,258.49c-47.71,76.95-116.23,139.8-196.61,181.34c-78.2,40.41-166.77,59.4-254.64,55.48
				c-91.47-4.08-180.63-34.18-256.74-84.89c-75.05-50-135.34-120.4-174.2-201.69c-37.97-79.44-54.14-168.65-47.45-256.37
				c6.97-91.51,40.16-180,93.44-254.57c52.24-73.11,124.43-130.84,206.56-167.02c80.61-35.51,170.41-48.82,257.89-39.37
				C1116.45,1222.96,1183.51,1245.48,1243.57,1280.05c6.72,3.87,12.76-6.5,6.06-10.36c-79.08-45.52-169.31-69.63-260.58-69.17
				c-88.3,0.44-176.02,24.2-252.78,67.74c-79.26,44.96-145.39,111.34-191.02,190.12c-45.68,78.87-69.63,169.47-69.17,260.58
				c0.44,88.3,24.2,176.02,67.74,252.78c44.96,79.26,111.34,145.39,190.12,191.02c78.87,45.68,169.47,69.63,260.58,69.17
				c88.3-0.44,176.02-24.2,252.78-67.74c79.26-44.96,145.39-111.34,191.02-190.12c45.68-78.87,69.63-169.47,69.17-260.58
				c-0.44-88.3-24.2-176.02-67.74-252.78c-44.96-79.26-111.34-145.39-190.12-191.02C1242.92,1265.8,1236.88,1276.17,1243.57,1280.05
				z"/>
		</g>
		<g>
			<path class="st0" d="M3891.73,2662.04c-78.85,45.38-168.84,68.87-259.83,67.47c-88-1.36-175.02-26.4-250.59-71.38
				c-78.47-46.7-142.7-114.94-185.81-195.33c-42.77-79.76-62.91-170.51-58.7-260.85c4.1-87.92,31.93-174.14,79.26-248.27
				c49.29-77.21,119.96-139.38,201.96-179.95c80.79-39.98,171.89-56.98,261.68-49.99c87.78,6.83,173.13,37.43,245.75,87.07
				c75.8,51.82,135.85,124.82,173.81,208.28c37.18,81.75,51.06,173.14,41.33,262.31c-9.55,87.56-42.91,171.99-94.84,243.03
				C4004.77,2580.46,3951.73,2627.29,3891.73,2662.04c-6.69,3.88-0.65,14.25,6.06,10.36c78.92-45.71,144.9-111.79,190.12-191.02
				c43.77-76.69,67.07-164.53,67.74-252.78c0.69-91.17-23.73-181.63-69.17-260.58c-45.44-78.96-111.93-144.99-191.02-190.12
				c-76.69-43.77-164.54-67.07-252.78-67.74c-91.17-0.69-181.63,23.74-260.58,69.17c-78.96,45.44-144.99,111.93-190.12,191.02
				c-43.77,76.69-67.07,164.54-67.74,252.78c-0.69,91.17,23.73,181.63,69.17,260.58c45.44,78.96,111.93,144.99,191.02,190.12
				c76.69,43.77,164.54,67.07,252.78,67.74c91.17,0.69,181.63-23.73,260.58-69.17C3904.49,2668.54,3898.44,2658.17,3891.73,2662.04z
				"/>
		</g>
		<g>
			<path class="st0" d="M1243.57,4190.95c-78.85,45.38-168.83,68.87-259.82,67.47c-88-1.36-175.02-26.4-250.6-71.38
				c-78.47-46.7-142.7-114.94-185.81-195.33c-42.77-79.76-62.92-170.52-58.7-260.85c4.1-87.92,31.93-174.14,79.26-248.27
				c49.29-77.21,119.95-139.38,201.95-179.96c80.8-39.98,171.9-56.98,261.68-49.99c87.78,6.83,173.13,37.43,245.75,87.07
				c75.8,51.82,135.85,124.82,173.81,208.28c37.18,81.75,51.06,173.14,41.33,262.31c-9.55,87.56-42.91,171.99-94.84,243.03
				C1356.61,4109.38,1303.57,4156.2,1243.57,4190.95c-6.69,3.88-0.65,14.25,6.06,10.36c78.92-45.71,144.91-111.79,190.13-191.02
				c43.77-76.69,67.07-164.53,67.74-252.78c0.69-91.17-23.74-181.63-69.17-260.58c-45.44-78.96-111.93-144.99-191.02-190.13
				c-76.69-43.77-164.53-67.07-252.78-67.74c-91.17-0.69-181.63,23.74-260.58,69.17c-78.95,45.44-144.98,111.93-190.12,191.02
				c-43.77,76.69-67.07,164.54-67.74,252.78c-0.69,91.17,23.73,181.63,69.17,260.58c45.44,78.96,111.93,144.99,191.02,190.12
				c76.69,43.77,164.54,67.07,252.78,67.74c91.17,0.69,181.63-23.73,260.58-69.17C1256.33,4197.46,1250.29,4187.08,1243.57,4190.95z
				"/>
		</g>
		<g>
			<path class="st0" d="M2126.29,3681.31c-78.85,45.38-168.83,68.87-259.82,67.47c-88-1.36-175.02-26.4-250.6-71.38
				c-78.47-46.7-142.7-114.94-185.81-195.33c-42.77-79.76-62.92-170.52-58.7-260.85c4.1-87.92,31.93-174.14,79.26-248.27
				c49.29-77.21,119.95-139.38,201.95-179.95c80.8-39.98,171.9-56.98,261.68-49.99c87.78,6.83,173.13,37.43,245.75,87.07
				c75.8,51.82,135.85,124.82,173.81,208.28c37.18,81.75,51.06,173.14,41.33,262.31c-9.55,87.56-42.91,171.99-94.84,243.03
				C2239.33,3599.74,2186.29,3646.56,2126.29,3681.31c-6.69,3.88-0.65,14.25,6.06,10.36c78.92-45.71,144.91-111.79,190.13-191.02
				c43.77-76.69,67.07-164.54,67.74-252.78c0.69-91.17-23.74-181.63-69.17-260.58c-45.44-78.96-111.93-144.99-191.02-190.12
				c-76.69-43.77-164.53-67.07-252.78-67.74c-91.17-0.69-181.64,23.74-260.58,69.17c-78.95,45.44-144.98,111.93-190.12,191.02
				c-43.77,76.69-67.07,164.54-67.74,252.78c-0.69,91.17,23.73,181.63,69.17,260.58c45.44,78.96,111.93,144.99,191.02,190.12
				c76.69,43.77,164.54,67.07,252.79,67.74c91.17,0.69,181.63-23.73,260.58-69.17C2139.04,3687.82,2133,3677.45,2126.29,3681.31z"/>
		</g>
		<g>
			<path class="st0" d="M4774.44,2152.4c-78.86,45.38-168.84,68.87-259.83,67.47c-88-1.36-175.01-26.4-250.59-71.38
				c-78.47-46.7-142.7-114.94-185.8-195.33c-42.77-79.76-62.92-170.52-58.71-260.85c4.1-87.92,31.93-174.14,79.26-248.27
				c49.29-77.21,119.96-139.38,201.95-179.95c80.79-39.98,171.9-56.98,261.68-49.99c87.78,6.83,173.13,37.43,245.75,87.07
				c75.8,51.82,135.85,124.82,173.81,208.28c37.18,81.75,51.06,173.14,41.33,262.31c-9.55,87.56-42.91,171.99-94.84,243.03
				C4887.49,2070.83,4834.45,2117.65,4774.44,2152.4c-6.69,3.88-0.65,14.25,6.06,10.36c78.92-45.71,144.91-111.79,190.12-191.02
				c43.77-76.69,67.07-164.54,67.74-252.78c0.69-91.17-23.74-181.63-69.17-260.58c-45.44-78.96-111.93-144.99-191.02-190.12
				c-76.69-43.77-164.54-67.07-252.78-67.74c-91.17-0.69-181.63,23.74-260.58,69.17c-78.96,45.44-144.99,111.93-190.12,191.02
				c-43.77,76.69-67.07,164.54-67.74,252.78c-0.69,91.17,23.74,181.63,69.17,260.58c45.44,78.96,111.93,144.99,191.02,190.12
				c76.69,43.77,164.54,67.07,252.78,67.74c91.17,0.69,181.63-23.73,260.58-69.17C4787.2,2158.91,4781.16,2148.54,4774.44,2152.4z"
				/>
		</g>
		<g>
			<path class="st0" d="M997.51,3755c-0.01-119-0.02-238.47-0.03-357.71c-0.02-254.59-0.05-509.18-0.07-763.78
				c-0.02-235.26-0.04-470.51-0.06-705.77c-0.01-62.04-0.01-124.07-0.02-186.11c0-6.45,0-12.89,0-19.33c0-8.96,1.77-4.2-2.96-1.47
				c7.77-4.49,15.55-8.97,23.32-13.46c145.56-84.02,291.12-168.04,436.68-252.06c228.62-131.97,457.25-263.94,685.88-395.91
				C2318.5,956.5,2496.75,853.61,2675,750.72c21.06-12.15,42.11-24.31,63.16-36.46c5.57-3.21,11.14-6.43,16.7-9.64
				c7.79-4.5,4.48-0.54-0.31-3.31c29.08,16.79,58.16,33.58,87.24,50.37c178.85,103.26,357.71,206.52,536.56,309.78
				c228.56,131.96,457.13,263.92,685.69,395.88c144.82,83.61,289.65,167.23,434.47,250.84c5.57,3.21,11.14,6.43,16.71,9.64
				c7.73,4.46,2.77,3.64,2.77-1.85c0,8.98,0,17.95,0,26.93c0.01,62.42,0.01,124.83,0.02,187.25c0.02,235.28,0.04,470.57,0.06,705.85
				c0.02,254.16,0.05,508.31,0.07,762.47c0.01,86.01,0.17,172.02,0.18,258.03c0,24.31,0.17,48.62,0.17,72.93c0,6.43,0,12.86,0,19.29
				c0,8.95-1.92,4.18,2.8,1.45c-103.94,60-207.97,120-311.91,180c-220.37,127.2-440.78,254.41-661.15,381.61
				c-203.36,117.38-406.73,234.77-610.09,352.15c-53.6,30.94-107.21,61.88-160.81,92.82c-5.57,3.21-11.14,6.43-16.71,9.64
				c-7.79,4.5-4.49,0.54,0.3,3.31c-7.77-4.49-15.55-8.98-23.32-13.47c-145.57-84.05-291.15-168.09-436.72-252.14
				c-228.65-132.01-457.29-264.02-685.94-396.03c-178.27-102.92-356.54-205.85-534.81-308.77c-28.54-16.48-57.08-32.95-85.62-49.43
				c-6.71-3.88-12.75,6.49-6.06,10.36c103.04,59.49,206.07,118.98,309.11,178.46c220.14,127.1,440.28,254.2,660.42,381.3
				c203.79,117.66,407.58,235.32,611.37,352.98c54.06,31.21,108.12,62.43,162.18,93.64c7.77,4.49,15.55,8.98,23.32,13.47
				c6.02,3.47,19.72-7.88,24.33-10.54c141.01-81.39,282.01-162.79,423.02-244.18c228.08-131.65,456.15-263.31,684.23-394.96
				c181.71-104.89,363.41-209.77,545.12-314.66c31.88-18.4,63.75-36.8,95.63-55.2c1.83-1.05,2.97-3.08,2.97-5.18
				c-0.01-118.96-0.02-237.92-0.03-356.87c-0.02-254.16-0.04-508.31-0.07-762.47c-0.02-235.28-0.04-470.57-0.06-705.85
				c-0.01-62.42-0.01-124.83-0.02-187.25c0-8.98,0-17.95,0-26.93c0-6.93-16.65-13.09-21.24-15.74
				c-141.02-81.42-282.04-162.83-423.06-244.25c-228.1-131.69-456.19-263.38-684.29-395.07
				c-181.72-104.92-363.44-209.83-545.17-314.75c-31.77-18.34-63.53-36.68-95.3-55.02c-5.8-3.35-16.21,5.47-20.89,8.17
				c-18.51,10.68-37.01,21.37-55.52,32.05c-172.23,99.42-344.46,198.83-516.69,298.25c-229.28,132.34-458.55,264.69-687.83,397.03
				c-152.88,88.25-305.76,176.5-458.65,264.74c-11.02,6.36-22.04,12.72-33.07,19.09c-1.83,1.05-2.97,3.08-2.97,5.18
				c0.01,119.24,0.02,238.48,0.03,357.72c0.02,254.59,0.05,509.19,0.07,763.79c0.02,235.26,0.04,470.5,0.06,705.76
				c0.01,70.7,0.01,141.08,0.02,212.08C985.51,3763,997.51,3763,997.51,3755z"/>
		</g>
		<g>
			<path class="st0" d="M2760.16,3754.04c-51.72-29.85-103.43-59.71-155.15-89.56c-110.49-63.78-220.99-127.56-331.48-191.34
				c-102.29-59.04-204.58-118.09-306.86-177.13c-31.04-17.92-62.08-35.83-93.12-53.75c0.99,1.73,1.98,3.45,2.97,5.18
				c0.01-59.86,0.01-119.71,0.02-179.57c0.01-127.8,0.02-255.6,0.04-383.4c0.01-118.09,0.02-236.19,0.03-354.28
				c0-35.49,0.01-70.98,0.01-106.47c-0.99,1.73-1.98,3.45-2.97,5.18c51.72-29.86,103.44-59.72,155.16-89.58
				c110.5-63.8,221.01-127.6,331.51-191.4c102.3-59.06,204.59-118.11,306.89-177.17c31.04-17.92,62.08-35.75,93.12-53.75
				c-2.02,0-4.04,0-6.06,0c51.84,30,103.68,59.83,155.52,89.76c110.68,63.89,221.37,127.77,332.05,191.66
				c102.28,59.04,204.55,118.07,306.83,177.11c30.74,17.74,61.47,35.48,92.21,53.22c-0.99-1.73-1.98-3.45-2.97-5.18
				c-0.01,59.71-0.01,119.43-0.02,179.14c-0.01,127.58-0.02,255.16-0.03,382.74c-0.01,118.11-0.02,236.21-0.03,354.32
				c0,35.84-0.01,71.68-0.01,107.52c0.99-1.73,1.98-3.45,2.97-5.18c-51.72,29.86-103.44,59.72-155.16,89.58
				c-110.5,63.8-221.01,127.6-331.51,191.4c-102.3,59.06-204.59,118.12-306.89,177.18c-31.04,17.92-62.08,35.84-93.12,53.77
				c-6.7,3.87-0.66,14.24,6.06,10.36c51.72-29.86,103.44-59.72,155.16-89.58c110.5-63.8,221.01-127.6,331.51-191.4
				c102.3-59.06,204.59-118.12,306.89-177.18c27.14-15.67,54.27-31.34,81.41-47c3.9-2.25,7.8-4.51,11.71-6.76
				c4.5-2.6,2.98-11.47,2.98-15.77c0.01-81.73,0.01-163.45,0.02-245.18c0.01-132.19,0.02-264.38,0.04-396.58
				c0.01-105.32,0.02-210.63,0.03-315.95c0-18.48,0-36.95,0-55.43c0-2.1-1.14-4.13-2.97-5.18
				c-51.84-29.92-103.68-59.85-155.52-89.77c-110.68-63.89-221.37-127.78-332.05-191.67c-102.28-59.04-204.55-118.07-306.83-177.11
				c-26.97-15.57-53.94-31.14-80.91-46.7c-3.77-2.17-7.53-4.35-11.3-6.52c-4.61-2.66-11.81,3.32-15.63,5.53
				c-71.17,41.09-142.35,82.18-213.52,123.28c-114.55,66.13-229.1,132.27-343.64,198.4c-90.93,52.5-181.87,105-272.8,157.5
				c-15.68,9.05-31.36,18.1-47.03,27.16c-4.37,2.52-3.09,9.84-3.09,14.09c0,10.9,0,21.81,0,32.71
				c-0.01,100.4-0.02,200.79-0.03,301.19c-0.01,133.01-0.02,266.02-0.04,399.03c-0.01,87.97-0.02,175.95-0.02,263.92
				c0,6,0,12.01,0,18.01c0,2.11,1.14,4.13,2.97,5.18c51.72,29.85,103.43,59.71,155.15,89.56
				c110.49,63.78,220.99,127.56,331.48,191.34c102.29,59.04,204.58,118.09,306.86,177.13c31.04,17.92,62.08,35.83,93.12,53.75
				C2760.82,3768.27,2766.86,3757.9,2760.16,3754.04z"/>
		</g>
		<g>
			<path class="st0" d="M997.32,3757.03c28.56-49.45,57.11-98.9,85.67-148.35c74.54-129.06,149.07-258.13,223.61-387.19
				c103.81-179.75,207.62-359.51,311.43-539.26c116.38-201.52,232.76-403.04,349.14-604.56
				c112.24-194.36,224.49-388.72,336.73-583.08c91.41-158.28,182.81-316.55,274.22-474.83c53.86-93.27,107.73-186.68,161.59-279.95
				c7.63-13.22,15.27-25.8,22.9-39.8c-3.45,0-6.91,0-10.36,0c28.55,50,57.09,99.05,85.64,148.51
				c74.5,129.08,149.01,258.23,223.52,387.31c103.77,179.78,207.53,359.59,311.3,539.37c116.33,201.55,232.66,403.11,349,604.66
				c112.2,194.39,224.4,388.78,336.6,583.17c91.37,158.3,182.74,316.6,274.11,474.9c53.84,93.28,107.68,186.57,161.53,279.85
				c7.63,13.22,15.26,26.44,22.89,39.66c1.73-3.01,3.45-6.02,5.18-9.03c-57.1-0.01-114.21-0.01-171.31-0.02
				c-149.04-0.02-298.08-0.03-447.12-0.05c-207.58-0.02-415.15-0.05-622.73-0.07c-232.71-0.03-465.42-0.05-698.13-0.08
				c-224.44-0.03-448.89-0.05-673.33-0.08c-182.78-0.02-365.55-0.04-548.33-0.06c-107.71-0.01-215.23-0.02-322.94-0.04
				c-15.27,0-30.61,0-45.61-0.01c-8,0-8,12,0,12c57,0.01,114.02,0.01,171.13,0.02c149.04,0.02,297.99,0.03,447.03,0.05
				c207.58,0.02,415.11,0.05,622.68,0.07c232.71,0.03,465.4,0.05,698.11,0.08c224.44,0.03,448.88,0.05,673.32,0.08
				c182.78,0.02,365.55,0.04,548.32,0.06c107.71,0.01,215.41,0.02,323.11,0.04c15.27,0,30.53,0,45.79,0.01
				c4.57,0,7.45-5.09,5.18-9.03c-28.54-49.46-57.09-98.91-85.64-148.37c-74.5-129.08-149.01-258.16-223.51-387.24
				c-103.77-179.78-207.53-359.56-311.3-539.34c-116.33-201.55-232.66-403.09-349-604.64c-112.2-194.39-224.4-388.77-336.6-583.16
				c-91.37-158.3-182.74-316.6-274.11-474.9c-53.84-93.28-107.68-186.56-161.53-279.85c-7.63-13.22-15.26-26.44-22.89-39.66
				c-2.25-3.89-8.11-3.89-10.36,0c-28.56,49.45-57.11,98.9-85.67,148.35c-74.54,129.06-149.07,258.13-223.61,387.19
				c-103.81,179.75-207.62,359.51-311.43,539.26c-116.38,201.52-232.76,403.04-349.14,604.56
				c-112.24,194.36-224.49,388.72-336.73,583.08c-91.41,158.28-182.81,316.56-274.22,474.83
				c-53.86,93.27-107.73,186.54-161.59,279.81c-7.63,13.22-15.27,26.44-22.9,39.66C983.08,3757.68,993.45,3763.72,997.32,3757.03z"
				/>
		</g>
		<g>
			<path class="st0" d="M992.5,1723.17c57,0,114.23,0,171.41,0c149.21,0,298.37,0,447.58,0.01c207.78,0,415.53,0,623.31,0.01
				c232.88,0,465.75,0.01,698.63,0.01c224.51,0,449.02,0.01,673.54,0.01c182.68,0,365.36-0.1,548.03-0.1
				c107.38,0,214.75-0.11,322.12-0.11c14.99,0,29.98,0,44.97,0c-1.73-3-3.45-5.91-5.18-8.92c-28.55,49.45-57.1,98.96-85.65,148.41
				c-74.52,129.07-149.04,258.17-223.55,387.24c-103.78,179.77-207.57,359.54-311.35,539.31
				c-116.35,201.53-232.7,403.07-349.05,604.6c-112.22,194.37-224.44,388.75-336.66,583.12
				c-91.39,158.29-182.77,316.58-274.16,474.86c-53.85,93.28-107.7,186.49-161.55,279.76c-7.63,13.22-15.26,26.6-22.9,39.6
				c3.45,0,6.91,0,10.36,0c-28.55-49-57.1-98.84-85.65-148.29c-74.52-129.07-149.04-258.12-223.56-387.19
				c-103.79-179.77-207.58-359.52-311.37-539.29c-116.36-201.54-232.71-403.06-349.07-604.6
				c-112.22-194.38-224.45-388.75-336.67-583.12c-91.39-158.29-182.78-316.58-274.17-474.87
				c-53.85-93.28-107.71-186.55-161.56-279.83c-7.63-13.22-15.27-26.44-22.9-39.66c-3.87-6.7-14.24-0.66-10.36,6.06
				c28.55,49.45,57.1,98.91,85.65,148.36c74.52,129.07,149.04,258.15,223.56,387.22c103.79,179.77,207.58,359.54,311.37,539.31
				c116.36,201.54,232.71,403.07,349.07,604.61c112.22,194.38,224.45,388.75,336.67,583.13
				c91.39,158.29,182.78,316.58,274.17,474.87c53.85,93.28,107.71,186.55,161.56,279.83c7.63,13.22,15.27,26.44,22.9,39.66
				c2.25,3.89,8.11,3.89,10.36,0c28.55-49.45,57.1-98.9,85.65-148.36c74.52-129.07,149.04-258.14,223.55-387.22
				c103.79-179.77,207.57-359.53,311.35-539.3c116.35-201.53,232.7-403.07,349.05-604.6c112.22-194.37,224.44-388.75,336.66-583.12
				c91.38-158.29,182.77-316.58,274.15-474.86c53.85-93.28,107.7-186.55,161.55-279.83c7.63-13.22,15.27-26.44,22.9-39.66
				c2.27-3.94-0.61-9.03-5.18-9.03c-57.17,0-114.35,0-171.52,0c-149.21,0-298.42,0-447.63-0.01c-207.78,0-415.56,0-623.34-0.01
				c-232.88,0-465.76-0.01-698.64-0.01c-224.51,0-449.03-0.01-673.54-0.01c-182.68,0-365.36-0.09-548.04-0.09
				c-107.38,0-214.75-0.09-322.13-0.09c-14.99,0-29.74,0-44.74,0C984.5,1711,984.5,1723.17,992.5,1723.17z"/>
		</g>
		<g>
			<g>
				<path class="st0" d="M1880.66,3247.39c14.27-24.7,28.53-49.4,42.79-74.1c37.23-64.47,74.46-128.94,111.69-193.41
					c51.85-89.79,103.71-179.58,155.56-269.37c58.13-100.66,116.27-201.33,174.4-301.99c56.07-97.09,112.14-194.17,168.2-291.26
					c45.66-79.06,91.32-158.12,136.98-237.19c26.91-46.59,53.81-93.43,80.72-140.02c3.81-6.6,7.63-13.06,11.44-20.06
					c-3.45,0-6.91,0-10.36,0c14.26,25,28.52,49.65,42.78,74.36c37.22,64.48,74.43,129.08,111.65,193.56
					c51.83,89.8,103.67,179.67,155.5,269.47c58.11,100.68,116.22,201.38,174.33,302.06c56.05,97.1,112.09,194.21,168.14,291.31
					c45.64,79.07,91.28,158.15,136.92,237.23c26.9,46.6,53.79,93.2,80.69,139.79c3.81,6.6,7.62,13.21,11.44,19.81
					c1.73-3.01,3.45-6.02,5.18-9.03c-28.52,0-57.05-0.01-85.57-0.01c-74.45-0.01-148.9-0.02-223.34-0.03
					c-103.69-0.01-207.38-0.02-311.06-0.04c-116.24-0.01-232.49-0.03-348.73-0.04c-112.11-0.01-224.23-0.03-336.34-0.04
					c-91.3-0.01-182.6-0.02-273.9-0.03c-53.8-0.01-107.59-0.01-161.39-0.02c-7.62,0-14.86,0-22.86,0s-8,12,0,12
					c28,0,57.04,0.01,85.56,0.01c74.45,0.01,148.89,0.02,223.34,0.03c103.69,0.01,207.37,0.02,311.06,0.04
					c116.24,0.01,232.48,0.03,348.73,0.04c112.11,0.01,224.23,0.03,336.34,0.04c91.3,0.01,182.6,0.02,273.9,0.03
					c53.8,0.01,107.6,0.01,161.4,0.02c7.62,0,15.25,0,22.88,0c4.57,0,7.45-5.09,5.18-9.03c-14.26-24.7-28.52-49.41-42.78-74.11
					c-37.22-64.48-74.43-128.96-111.65-193.44c-51.83-89.8-103.67-179.6-155.5-269.41c-58.11-100.68-116.22-201.35-174.33-302.03
					c-56.05-97.1-112.09-194.2-168.14-291.3c-45.64-79.07-91.28-158.15-136.92-237.22c-26.9-46.6-53.79-93.19-80.69-139.79
					c-3.81-6.6-7.62-13.21-11.44-19.81c-2.25-3.89-8.11-3.89-10.36,0c-14.27,24.7-28.53,49.4-42.79,74.1
					c-37.23,64.47-74.46,128.94-111.69,193.41c-51.85,89.79-103.71,179.58-155.56,269.37c-58.13,100.66-116.27,201.33-174.4,301.99
					c-56.07,97.09-112.14,194.17-168.2,291.26c-45.66,79.06-91.32,158.12-136.98,237.19c-26.91,46.59-53.81,93.18-80.72,139.77
					c-3.81,6.6-7.63,13.21-11.44,19.81C1866.42,3248.05,1876.79,3254.09,1880.66,3247.39z"/>
			</g>
			<g>
				<path class="st0" d="M1875.5,2236c29,0,57.13,0,85.69,0c74.53,0,149.07,0,223.6,0c103.79,0,207.58,0,311.37,0
					c116.33,0,232.66,0,348.99,0c112.15,0,224.3,0,336.45,0c91.25,0,182.5,0,273.76,0c53.64,0,107.27,0,160.91,0
					c7.49,0,14.98,0,22.46,0c-1.73-3-3.45-5.92-5.18-8.93c-14.26,24.7-28.52,49.46-42.79,74.16
					c-37.22,64.47-74.45,128.97-111.67,193.45c-51.84,89.8-103.69,179.61-155.53,269.4c-58.12,100.67-116.24,201.35-174.37,302.02
					c-56.06,97.09-112.11,194.19-168.17,291.28c-45.65,79.07-91.3,158.14-136.95,237.21c-26.9,46.59-53.8,93.1-80.7,139.69
					c-3.81,6.6-7.63,13.72-11.44,19.72c3.45,0,6.91,0,10.36,0c-14.28-25-28.56-49.38-42.84-74.11
					c-37.27-64.55-74.53-129.05-111.8-193.6c-51.9-89.89-103.79-179.75-155.69-269.64c-58.16-100.74-116.33-201.48-174.49-302.22
					c-56.07-97.12-112.15-194.24-168.22-291.37c-45.63-79.03-91.25-158.05-136.88-237.08c-26.82-46.45-53.64-92.9-80.46-139.35
					c-3.74-6.49-7.49-12.97-11.23-19.45c-3.87-6.7-14.24-0.66-10.36,6.06c14.28,24.73,28.56,49.47,42.84,74.2
					c37.27,64.55,74.53,129.1,111.8,193.65c51.9,89.89,103.79,179.77,155.69,269.66c58.16,100.74,116.33,201.49,174.49,302.23
					c56.07,97.12,112.15,194.25,168.22,291.37c45.63,79.03,91.25,158.05,136.88,237.08c26.82,46.45,53.64,92.9,80.46,139.35
					c3.74,6.48,7.49,12.97,11.23,19.46c2.25,3.89,8.11,3.89,10.36,0c14.26-24.7,28.52-49.4,42.79-74.11
					c37.22-64.47,74.45-128.95,111.67-193.42c51.84-89.8,103.69-179.59,155.53-269.39c58.12-100.67,116.24-201.34,174.37-302.01
					c56.06-97.09,112.11-194.19,168.17-291.28c45.65-79.07,91.3-158.14,136.95-237.2c26.9-46.59,53.8-93.19,80.7-139.78
					c3.81-6.6,7.62-13.31,11.44-19.91c2.27-3.94-0.61-9.13-5.18-9.13c-28.56,0-57.12,0-85.68,0c-74.53,0-149.07,0-223.6,0
					c-103.79,0-207.58,0-311.37,0c-116.33,0-232.66,0-348.99,0c-112.15,0-224.3,0-336.45,0c-91.25,0-182.5,0-273.76,0
					c-53.64,0-107.27,0-160.91,0c-7.49,0-14.48,0-22.48,0S1867.5,2236,1875.5,2236z"/>
			</g>
		</g>
		<g>
			<path class="st0" d="M1876.31,3240.08c31.25-89.56,62.5-179.11,93.75-268.66c74.32-212.98,148.63-425.95,222.95-638.93
				c88.23-252.86,176.47-505.73,264.71-758.59c73-209.22,146.01-418.43,219.01-627.65c28.7-82.25,57.4-164.49,86.1-246.74
				c-3.93-0.53-7.86-1.06-11.79-1.59c0,66.03,0,132.05,0,198.07c0,172.31,0.01,344.62,0.01,516.93
				c0.01,239.94,0.01,479.89,0.02,719.83c0.01,268.93,0.01,537.86,0.02,806.79c0.01,259.27,0.01,518.54,0.02,777.81
				c0.01,210.96,0.01,421.92,0.02,632.88c0,124,0.01,248,0.01,372c0,17.31,0,34.62,0,51.93c0,7.02,9.62,7.85,11.79,1.6
				c30.89-89.32,61.78-178.65,92.66-267.97c73.54-212.68,147.09-425.36,220.64-638.04c87.53-253.11,175.05-506.22,262.58-759.33
				c72.83-210.61,145.66-421.22,218.48-631.82c29.48-85.24,58.95-170.48,88.43-255.72c1.01-2.91-1.12-6.8-4.19-7.38
				c-93.16-17.74-186.32-35.47-279.47-53.21c-221.61-42.19-443.23-84.38-664.84-126.57c-263.27-50.12-526.55-100.24-789.82-150.36
				c-218.14-41.53-436.28-83.06-654.42-124.59c-86.39-16.45-172.78-32.89-259.16-49.34c-6.47-1.23-10.79,7.41-4.62,10.97
				c57.17,33,114.35,66,171.52,98.99c149.21,86.12,298.42,172.23,447.63,258.35c207.78,119.92,415.56,239.84,623.33,359.75
				c232.88,134.41,465.76,268.81,698.64,403.22c224.51,129.58,449.02,259.15,673.53,388.73
				c182.68,105.43,365.35,210.86,548.03,316.3c107.38,61.97,214.75,123.94,322.13,185.91c14.99,8.65,29.98,17.3,44.97,25.96
				c1.54-3.66,3.08-7.31,4.62-10.97c-92.77-18.05-185.54-36.1-278.32-54.16c-220.89-42.98-441.79-85.96-662.68-128.95
				c-262.88-51.15-525.77-102.3-788.65-153.46c-218.74-42.56-437.48-85.13-656.22-127.69c-88.53-17.23-177.07-34.45-265.6-51.68
				c-7.56-1.47-10.78,10.09-3.19,11.57c92.77,18.05,185.54,36.1,278.32,54.16c220.89,42.98,441.79,85.96,662.68,128.95
				c262.88,51.15,525.77,102.3,788.65,153.46c218.74,42.56,437.48,85.13,656.22,127.69c88.53,17.23,177.06,34.45,265.6,51.68
				c6.48,1.26,10.78-7.42,4.62-10.97c-57.17-33-114.35-66-171.52-98.99c-149.21-86.12-298.42-172.23-447.63-258.35
				c-207.78-119.92-415.56-239.84-623.33-359.76c-232.88-134.41-465.76-268.81-698.64-403.22
				c-224.51-129.58-449.02-259.15-673.53-388.73c-182.68-105.43-365.35-210.86-548.03-316.29
				c-107.38-61.97-214.75-123.94-322.12-185.91c-14.99-8.65-29.98-17.3-44.97-25.96c-1.54,3.66-3.08,7.31-4.62,10.97
				c93.16,17.73,186.32,35.47,279.47,53.21c221.61,42.19,443.23,84.38,664.84,126.57c263.27,50.12,526.55,100.24,789.82,150.37
				c218.14,41.53,436.28,83.06,654.42,124.59c86.39,16.45,172.78,32.89,259.16,49.34c-1.4-2.46-2.79-4.92-4.19-7.38
				c-30.89,89.32-61.78,178.65-92.66,267.97c-73.54,212.68-147.09,425.36-220.64,638.04c-87.53,253.11-175.05,506.22-262.58,759.33
				c-72.83,210.61-145.66,421.22-218.48,631.82c-29.48,85.24-58.95,170.48-88.43,255.72c3.93,0.53,7.86,1.06,11.79,1.6
				c0-66.02,0-132.05,0-198.08c0-172.31-0.01-344.62-0.01-516.93c-0.01-239.94-0.01-479.89-0.02-719.83
				c-0.01-268.93-0.01-537.86-0.02-806.79c-0.01-259.27-0.01-518.54-0.02-777.81c-0.01-210.96-0.01-421.92-0.02-632.88
				c0-124-0.01-248-0.01-372c0-17.31,0-34.62,0-51.93c0-7.03-9.61-7.83-11.79-1.6c-31.25,89.55-62.5,179.11-93.75,268.66
				c-74.32,212.98-148.63,425.95-222.95,638.93c-88.23,252.86-176.47,505.73-264.71,758.59c-73,209.22-146.01,418.43-219.01,627.65
				c-28.7,82.25-57.4,164.5-86.1,246.74C1862.18,3244.22,1873.78,3247.34,1876.31,3240.08L1876.31,3240.08z"/>
		</g>
		<g>
			<path class="st0" d="M4517.84,1712.96c-47.55,54.66-95.1,109.32-142.65,163.99c-117.66,135.25-235.31,270.51-352.97,405.77
				c-150.27,172.75-300.54,345.5-450.81,518.25c-145.4,167.15-290.79,334.29-436.19,501.44
				c-103.03,118.45-206.07,237.09-309.1,355.53c-26.93,30.96-53.86,62.06-80.78,93.06c2.83,0,5.66,0,8.49,0
				c-47.45-55-94.9-110.23-142.35-165.25c-117.31-136.03-234.63-272.15-351.94-408.17c-149.62-173.48-299.23-347.01-448.85-520.49
				c-144.36-167.38-288.72-334.79-433.07-502.17c-101.54-117.73-203.08-235.48-304.62-353.21c-25.51-29.58-51.02-59.16-76.52-88.73
				c-5.06-5.87-13.51,2.65-8.49,8.48c47.45,55.02,94.9,110.04,142.35,165.06c117.31,136.03,234.63,272.05,351.94,408.08
				c149.62,173.48,299.23,346.96,448.85,520.44c144.36,167.38,288.72,334.76,433.07,502.15
				c101.54,117.73,203.08,235.47,304.62,353.2c25.51,29.58,51.02,59.15,76.52,88.73c2.03,2.36,6.45,2.34,8.49,0
				c47.55-54.66,95.1-109.32,142.65-163.99c117.65-135.25,235.31-270.51,352.97-405.77c150.27-172.75,300.54-345.5,450.81-518.25
				c145.4-167.15,290.8-334.29,436.19-501.44c103.03-118.45,206.07-236.89,309.1-355.34c26.93-30.96,53.85-61.91,80.78-92.87
				C4531.38,1715.64,4522.93,1707.11,4517.84,1712.96L4517.84,1712.96z"/>
		</g>
		<g>
			<path class="st0" d="M2762.93,4772.56c-31.25-89.58-62.51-179.15-93.76-268.73c-74.33-213.03-148.65-426.05-222.98-639.08
				c-88.25-252.92-176.49-505.84-264.74-758.77c-73.01-209.27-146.03-418.53-219.04-627.8c-28.7-82.27-57.41-164.53-86.11-246.8
				c-1.4,2.46-2.79,4.92-4.19,7.38c92.77-18.05,185.55-36.09,278.32-54.14c220.9-42.97,441.8-85.94,662.7-128.91
				c262.89-51.14,525.78-102.28,788.68-153.42c218.75-42.55,437.5-85.1,656.24-127.65c88.54-17.22,177.07-34.44,265.61-51.67
				c-1.54-3.66-3.08-7.31-4.62-10.97c-57.18,32.99-114.35,65.98-171.53,98.97c-149.22,86.1-298.43,172.2-447.65,258.3
				c-207.79,119.89-415.58,239.79-623.36,359.68c-232.89,134.38-465.78,268.76-698.67,403.13
				c-224.52,129.55-449.04,259.1-673.57,388.65c-182.69,105.41-365.37,210.82-548.06,316.23
				c-107.38,61.96-214.76,123.92-322.14,185.88c-14.99,8.65-29.98,17.3-44.97,25.95c-6.16,3.55-1.85,12.21,4.62,10.97
				c93.11-17.92,186.23-35.85,279.34-53.77c221.51-42.64,443.02-85.28,664.53-127.92c263.15-50.65,526.3-101.31,789.45-151.96
				c218.04-41.97,436.08-83.94,654.11-125.91c86.35-16.62,172.7-33.24,259.04-49.86c3.07-0.59,5.2-4.46,4.19-7.38
				c-31.02-89.6-62.03-179.2-93.05-268.81c-73.79-213.15-147.57-426.31-221.36-639.46c-87.66-253.22-175.32-506.45-262.97-759.67
				c-72.63-209.81-145.26-419.63-217.89-629.44c-28.76-83.09-57.53-166.18-86.29-249.27c-2.52-7.27-14.11-4.14-11.57,3.19
				c31.02,89.6,62.03,179.2,93.05,268.81c73.79,213.15,147.57,426.31,221.36,639.46c87.66,253.22,175.32,506.45,262.97,759.67
				c72.63,209.81,145.26,419.63,217.89,629.44c28.76,83.09,57.53,166.18,86.29,249.27c1.4-2.46,2.79-4.92,4.19-7.38
				c-93.12,17.92-186.23,35.85-279.34,53.77c-221.51,42.64-443.02,85.28-664.53,127.92c-263.15,50.66-526.3,101.31-789.45,151.96
				c-218.04,41.97-436.08,83.94-654.12,125.91c-86.35,16.62-172.69,33.24-259.04,49.86c1.54,3.66,3.08,7.31,4.62,10.97
				c57.18-32.99,114.35-65.98,171.53-98.97c149.22-86.1,298.43-172.2,447.65-258.3c207.79-119.89,415.57-239.79,623.36-359.68
				c232.89-134.38,465.78-268.76,698.67-403.13c224.52-129.55,449.04-259.1,673.57-388.65
				c182.69-105.41,365.37-210.82,548.06-316.23c107.38-61.96,214.76-123.92,322.14-185.88c14.99-8.65,29.98-17.3,44.97-25.95
				c6.15-3.55,1.85-12.23-4.62-10.97c-92.78,18.05-185.55,36.09-278.33,54.14c-220.9,42.97-441.8,85.94-662.7,128.91
				c-262.89,51.14-525.79,102.28-788.68,153.42c-218.75,42.55-437.5,85.1-656.24,127.65c-88.54,17.22-177.07,34.44-265.61,51.67
				c-3.06,0.6-5.21,4.46-4.19,7.38c31.25,89.58,62.51,179.15,93.76,268.73c74.33,213.03,148.65,426.05,222.98,639.08
				c88.25,252.92,176.49,505.84,264.74,758.77c73.01,209.27,146.03,418.53,219.04,627.8c28.7,82.27,57.41,164.53,86.11,246.8
				C2753.89,4783.01,2765.49,4779.89,2762.93,4772.56L2762.93,4772.56z"/>
		</g>
		<g>
			<path class="st0" d="M4526.24,3750.17c-47.35-54.8-94.69-109.59-142.04-164.39c-117.15-135.58-234.31-271.17-351.46-406.75
				c-149.63-173.17-299.26-346.34-448.89-519.51c-144.78-167.55-289.56-335.11-434.33-502.66
				c-102.6-118.74-205.19-237.47-307.79-356.21c-26.81-31.03-53.63-62.06-80.44-93.09c-2.03-2.35-6.46-2.35-8.49,0
				c-47.42,54.87-94.85,109.75-142.27,164.62c-117.32,135.75-234.63,271.5-351.95,407.25
				c-149.79,173.32-299.57,346.64-449.35,519.96c-144.83,167.58-289.65,335.16-434.48,502.74
				c-102.44,118.54-204.88,237.07-307.32,355.6c-26.51,30.68-53.02,61.35-79.54,92.03c-5.03,5.82,3.42,14.35,8.49,8.49
				c47.42-54.87,94.85-109.75,142.27-164.62c117.32-135.75,234.63-271.5,351.95-407.25c149.78-173.32,299.57-346.64,449.35-519.96
				c144.83-167.58,289.65-335.16,434.48-502.74c102.44-118.54,204.88-237.09,307.32-355.62c26.51-30.68,53.02-61.05,79.54-92.05
				c-2.83,0-5.66,0-8.49,0c47.35,55,94.69,109.61,142.04,164.41c117.15,135.58,234.31,271.18,351.46,406.76
				c149.63,173.17,299.26,346.35,448.89,519.52c144.78,167.55,289.56,335.11,434.33,502.67
				c102.59,118.74,205.19,237.47,307.79,356.21c26.81,31.03,53.63,62.06,80.44,93.09
				C4522.82,3764.52,4531.27,3755.99,4526.24,3750.17L4526.24,3750.17z"/>
		</g>
	</g>
</g>
<g id="Hilfslinien">
</g>
</svg>
